<?xml version="1.0" encoding="UTF-8" standalone="no"?>
<!DOCTYPE svg PUBLIC "-//W3C//DTD SVG 1.1//EN" "http://www.w3.org/Graphics/SVG/1.1/DTD/svg11.dtd">
<svg width="100%" height="100%" viewBox="0 0 580 214" version="1.1" xmlns="http://www.w3.org/2000/svg" xmlns:xlink="http://www.w3.org/1999/xlink" xml:space="preserve" xmlns:serif="http://www.serif.com/" style="fill-rule:evenodd;clip-rule:evenodd;stroke-linejoin:round;stroke-miterlimit:1.41421;">
    <g transform="matrix(0.358763,0,0,0.358763,-13.6008,-68.3658)">
        <g>
            <g transform="matrix(0.980655,0,0,1,10.3021,0)">
                <path d="M557.121,749.038L610.541,744.777L610.541,455.391L551.878,455.391L551.878,423.273L610.541,423.273L610.541,378.046C610.541,340.248 620.974,311.08 641.84,290.542C662.705,270.004 691.6,259.735 728.525,259.735C742.945,259.735 757.693,261.374 772.768,264.651C787.844,267.929 803.138,272.735 818.651,279.071L812.424,312.828C799.314,307.366 786.424,303.105 773.751,300.046C761.079,296.987 746.768,295.458 730.819,295.458C704.163,295.458 684.008,302.559 670.352,316.761C656.697,330.962 649.869,351.391 649.869,378.046L649.869,423.273L853.39,423.273L853.39,744.777L906.81,749.038L906.81,777.878L760.97,777.878L760.97,749.038L814.39,744.777L814.39,455.391L649.869,455.391L649.869,744.777L703.289,749.038L703.289,777.878L557.121,777.878L557.121,749.038Z" style="fill:white;fill-rule:nonzero;"/>
            </g>
            <g transform="matrix(0.980655,0,0,1,17.503,0)">
                <path d="M929.355,749.038L982.775,744.777L982.775,456.702L929.355,452.441L929.355,423.273L1017.51,423.273L1021.12,485.214C1032.48,463.365 1047.83,446.487 1067.17,434.58C1086.5,422.672 1109.39,416.718 1135.83,416.718C1174.28,416.718 1203.56,428.462 1223.66,451.95C1243.76,475.437 1253.81,512.088 1253.81,561.903L1253.81,744.777L1307.23,749.038L1307.23,777.878L1161.06,777.878L1161.06,749.038L1214.48,744.777L1214.48,562.231C1214.48,521.592 1206.89,492.861 1191.7,476.038C1176.52,459.214 1154.94,450.802 1126.98,450.802C1099.45,450.802 1077,458.067 1059.63,472.597C1042.26,487.126 1029.75,506.407 1022.1,530.441L1022.1,744.777L1075.52,749.038L1075.52,777.878L929.355,777.878L929.355,749.038Z" style="fill:white;fill-rule:nonzero;"/>
            </g>
            <g transform="matrix(0.980655,0,0,1,24.9886,0)">
                <path d="M1569.97,726.752C1558.17,745.323 1542.99,759.634 1524.42,769.685C1505.85,779.735 1484,784.76 1458.87,784.76C1416.48,784.76 1383.33,768.92 1359.4,737.239C1335.48,705.559 1323.52,663.281 1323.52,610.407L1323.52,603.525C1323.52,546.937 1335.48,501.655 1359.4,467.681C1383.33,433.706 1416.7,416.718 1459.53,416.718C1484.21,416.718 1505.63,421.908 1523.76,432.286C1541.89,442.664 1556.97,457.466 1568.99,476.693L1568.99,300.046L1515.57,295.786L1515.57,266.618L1608.32,266.618L1608.32,744.777L1661.74,749.038L1661.74,777.878L1573.25,777.878L1569.97,726.752ZM1363.17,610.407C1363.17,653.231 1371.75,687.315 1388.9,712.659C1406.05,738.004 1431.89,750.676 1466.41,750.676C1491.53,750.676 1512.56,744.996 1529.5,733.634C1546.43,722.273 1559.59,706.651 1568.99,686.769L1568.99,518.97C1560.25,498.87 1547.63,482.483 1531.13,469.811C1514.64,457.139 1493.28,450.802 1467.06,450.802C1432.54,450.802 1406.6,464.95 1389.23,493.244C1371.86,521.538 1363.17,558.298 1363.17,603.525L1363.17,610.407Z" style="fill:white;fill-rule:nonzero;"/>
            </g>
        </g>
        <g transform="matrix(0.24,0,0,0.24,0,0)">
            <path d="M680.119,2212.51L743.89,2038.38C861.939,2081.61 993.381,2079.47 1108.55,2034.06C1216.65,1991.43 1309.22,1910.83 1366.62,1809.93C1439.24,1682.3 1453.68,1522.95 1403.06,1382.68C1359.74,1262.66 1269.98,1160.36 1156.67,1101.45C1041.44,1041.54 902.351,1027.67 776.301,1064.53C648.83,1101.8 537.532,1190.8 472.56,1307.02C412.196,1415.01 393.243,1544.93 419.301,1665.64C420.623,1671.76 422.066,1677.86 423.603,1683.92L181.275,1745.38C141.359,1587.99 152.838,1417.9 214.615,1267.36C276.848,1115.7 389.198,984.975 531.82,900.363C645.076,833.172 775.635,796.403 907.04,794.116C911.952,794.03 916.87,793.995 921.771,793.999C1033.61,794.264 1145.85,819.243 1247.13,867.284C1372.03,926.53 1480.42,1020.64 1556.82,1135.94C1638.7,1259.53 1683.34,1407.36 1683.34,1556.79C1683.34,1688.27 1648.89,1819.36 1583.92,1933.56C1495.54,2088.9 1351.38,2211.54 1182.82,2273.26C1101.58,2303.01 1015.28,2318.41 928.863,2319.37L636.075,3116.16L1684.72,3116.16L1684.72,3241.16L393.917,3241.16L393.917,3241.16L303.51,3241.16L302.155,3240.66L679.976,2212.46L680.119,2212.51ZM920.576,1210.67C825.529,1210.74 729.889,1251.94 664.327,1324.07C607.132,1387 574.485,1471.21 574.418,1556.82L491.085,1556.76C491.156,1465.07 521.408,1373.39 576.424,1299.82C628.045,1230.79 700.799,1177.8 782.187,1150.12C826.418,1135.07 873.206,1127.44 919.851,1127.33L920.511,1127.33C920.533,1155.11 920.554,1182.89 920.576,1210.67Z" style="fill:white;fill-rule:nonzero;"/>
        </g>
    </g>
</svg>
