<?xml version="1.0" encoding="UTF-8" standalone="no"?>
<!DOCTYPE svg PUBLIC "-//W3C//DTD SVG 1.1//EN" "http://www.w3.org/Graphics/SVG/1.1/DTD/svg11.dtd">
<svg width="100%" height="100%" viewBox="0 0 1000 1000" version="1.1" xmlns="http://www.w3.org/2000/svg" xmlns:xlink="http://www.w3.org/1999/xlink" xml:space="preserve" xmlns:serif="http://www.serif.com/" style="fill-rule:evenodd;clip-rule:evenodd;stroke-linejoin:round;stroke-miterlimit:1.41421;">
    <path d="M1000,0C1000,0 750,0 500,0C367.392,0 240.215,52.678 146.447,146.447C52.678,240.215 0,367.392 0,500C0,500 0,500 0,500C0,776.142 223.858,1000 500,1000C500,1000 500,1000 500,1000C776.142,1000 1000,776.142 1000,500C1000,250 1000,0 1000,0Z" style="fill:rgb(0,152,24);"/>
    <g transform="matrix(1,0,0,1,-38.9482,-61.8889)">
        <path d="M49.949,468.387C49.862,424.965 56.809,381.446 70.951,340.114C111.134,222.68 208.854,126.731 328.929,89.554C366.204,78.013 405.353,72.108 444.282,71.892L446.2,71.889L446.2,156.893L445.696,156.888C369.267,157.067 293.132,186.505 236.47,238.161C172.823,296.185 134.703,380.485 134.706,468.387L49.949,468.387Z" style="fill:rgb(255,0,14);"/>
    </g>
    <g transform="matrix(1.20436,0,0,1.20436,191.957,195.421)">
        <circle cx="155.2" cy="151.387" r="167" style="fill:white;"/>
    </g>
    <g transform="matrix(1.14471,0,0,1.14471,101.507,100.38)">
        <circle cx="242.302" cy="242.302" r="122.302" style="fill:rgb(0,22,255);"/>
    </g>
    <g transform="matrix(1.71273,0,0,1.71273,-712.727,0)">
        <path d="M1000,0L754.777,0L1000,245.223L1000,0Z" style="fill:rgb(255,229,0);"/>
    </g>
    <g transform="matrix(1.14471,0,0,1.14471,167.21,77.4859)">
        <circle cx="206.302" cy="206.302" r="26.302" style="fill:white;"/>
    </g>
</svg>
