<svg id="Layer_1" data-name="Layer 1" xmlns="http://www.w3.org/2000/svg" viewBox="0 0 1280 1280"><defs><style>.cls-1{fill:none;stroke:red;stroke-linecap:round;stroke-linejoin:round;}</style></defs><title>development</title><path class="cls-1" d="M729.18,855.35c6,10.28,126.29-82.37,130.38-75.28,1.9,3.29-113.19,68.57-112,70.67,4.77,8.26,110.3-74.25,114.88-66.32,1.23,2.14-110.64,64.79-109.8,66.26,4.94,8.55,107.1-71.32,111.21-64.2,3.74,6.47-90.91,66.88-89.35,69.59,5.55,9.6,92.49-63,96.66-55.81,3.95,6.83-90.91,58.56-90.63,59,3.92,6.79,92.23-53.62,92.39-53.34,5.1,8.84-89.48,54.64-89,55.42,4.23,7.35,84.83-60.4,89.78-51.83,4.12,7.14-85.7,52.24-83.67,55.75,1.72,3,83.34-49.54,84-48.47.94,1.61-81.63,47.1-79.23,51.27.64,1.1,75.14-51,78.42-45.28,3.18,5.5-50.25,44.1-46.85,50,.19.32,8.22-5.59,8.58-5"/><path class="cls-1" d="M881.18,704c3,5.27,54.35-36.69,56.65-32.71,1.86,3.22-51.37,28.63-50.44,30.24,0,0,49.78-29.58,50.14-28.95.24.41-47,26.18-46,27.83,2.43,4.22,44.81-27.92,45.7-26.38.51.88-16.74,16.88-15.92,18.31.24.42,6.73-4,6.79-3.92"/><path class="cls-1" d="M785.36,425.61c.06.11,14.32-10,15.07-8.7,1,1.68-17.6,9.3-17.15,10.07.31.55,17.8-11.66,18.4-10.63"/><path class="cls-1" d="M582.58,522.79c1.86,3.22,152.87-88.7,153.06-88.37,2.06,3.57-108.27,68.3-104.55,74.74,4.25,7.36,117.6-84.49,124.78-72,5.1,8.83-94.64,65-90,73.06C668,514,822.23,404,829.12,415.92c8.62,14.94-161.91,87.61-157.49,95.27,8.29,14.36,152-108.91,161.17-93.05,4.59,7.95-157.83,89.65-155.07,94.43,4.34,7.51,153.77-100.51,158.85-91.71,6.39,11.07-144.2,93.72-142.38,96.89,6.74,11.66,148.9-94.33,152.52-88.06,6,10.35-141.71,83.5-134,96.9,5,8.68,143.87-88.75,146.33-84.48,6.49,11.25-141,82.38-136,91.11C728.74,543,863.83,446,866.4,450.48c2,3.48-138.35,85.28-137.17,87.32,5.28,9.15,134.59-93.2,141.3-81.58,2.45,4.23-132.3,85.64-126.82,95.14,2.66,4.6,126.78-84.22,131.55-75.95,3.65,6.32-129.87,77-128.63,79.19,7.24,12.53,125.83-75.78,127.18-73.43,6.81,11.78-120.63,80.92-118.26,85,4.39,7.61,100.22-69,105-60.63,0,.05-102.26,64.69-101.94,65.24.6,1,93.9-60.35,96.55-55.75.4.69-100.16,49.42-95.11,58.18,2.91,5,93.37-53.93,93.38-53.92,4.56,7.9-97.73,46.35-92.88,54.75s90-57.63,92.47-53.39c.27.47-87.5,62.84-86.51,64.56,3.9,6.76,84-48.91,84.18-48.6,1.81,3.13-84.68,49.31-81.55,54.74,2.39,4.13,78-54.69,82.18-47.45,2.6,4.51-77.5,61.77-77,62.61,2.26,3.92,78.57-52.84,81.81-47.23,2.94,5.09-81.22,52.34-80,54.43.26.45,79.54-55.11,83.51-48.22,2.21,3.82-83.76,54.83-81.65,58.48,4.59,8,84.48-56.56,87.85-50.73,3.45,6-88.58,54.48-87.05,57.12,2.68,4.64,88.73-57.9,91.61-52.9,4.89,8.47-92.79,58.6-91,61.68,5.67,9.82,96-60.45,98.21-56.7,4.8,8.31-101.47,54.8-98.17,60.52,4.29,7.43,99.72-62.11,101.68-58.71C883.45,588.35,773,653.87,778.24,663c1.41,2.44,121.54-79.75,125.68-72.57,5.81,10.07-133,96.77-131.83,98.75C779,701.2,922,589.53,927.7,599.36c6.63,11.49-165.18,91.07-159.73,100.5,7.93,13.73,155.8-111.11,165-95.25.15.26-173.69,84.82-166.19,97.81,3.58,6.21,157.73-112.73,167.11-96.48C944,623.52,749.46,704.75,757.58,718.81,764.31,730.47,935.25,611.29,937.39,615c9.4,16.28-184.62,101-181.51,106.38,7.58,13.12,181.17-106.13,181.83-105,8.07,14-230.69,119.25-218.32,140.68,7.12,12.33,211.9-140.76,219.88-127"/><path class="cls-1" d="M513.88,856.35c2.7,4.68,131.85-79.33,133.24-76.92,4.29,7.43-111.83,63.46-107.25,71.4C546.31,862,663.52,772.1,666.7,777.6c5.09,8.82-104.52,79.5-104.39,79.74,8.39,14.52,367.88-233.92,377.21-217.78,14.94,25.88-380.71,198.9-361.76,231.72,10.92,18.92,353-222.84,361.22-208.55,9,15.6-363.89,203.4-355.8,217.42,6.21,10.75,267.13-181.33,278.86-161,10.72,18.56-281.93,156.17-277.83,163.26,11.84,20.52,270.9-164.84,274.55-158.51.37.64-272,168.73-270.18,171.87C593.74,904.7,841.14,726.14,851.46,744,866.62,770.26,575,876.17,590,902.23c2.94,5.1,258.3-155.11,260.89-150.63.3.53-263.2,148.29-260.24,153.43C601.75,924.24,848.26,749.9,851,754.7c7.05,12.21-272.87,133.6-257.88,159.57,5.14,8.9,248-169.73,259.45-149.8,1.6,2.76-271.62,130.61-257.66,154.78,8.21,14.23,245.31-173.89,259.28-149.69,3.1,5.37-251.74,160.16-250.47,162.35,1.85,3.2,104.83-64.74,106.66-61.58,2.07,3.58-84.79,66.52-83.61,68.56.26.45,69.16-48.24,72.76-42,2.94,5.1-59.37,37.41-56.13,43,1.05,1.83,52.86-31.89,53.45-30.86,2.93,5.07-54.08,26.25-51.37,31,1.24,2.14,49.87-31,50.83-29.35,2.59,4.5-44.77,27.85-43.87,29.4.58,1,40.52-26.51,41.87-24.18.7,1.23-20.22,17.29-18.88,19.62.36.62,6.37-4,6.49-3.75"/><path class="cls-1" d="M364.47,598c.21.36,7.2-4.5,7.35-4.25,0,0-17.46,12.54-16.54,14.12.32.56,30.83-21.56,32.46-18.74,1.89,3.26-39.71,39.2-39,40.38C360,649.1,709.92,414.87,712.55,419.42c9.78,16.93-370.71,218.23-364.61,228.81,3.41,5.9,360.3-248.71,377.92-218.19,7.94,13.75-386.59,218.06-376.1,236.23,3.27,5.66,180-126.81,189.93-109.65,6.52,11.3-189.11,115.7-185.83,121.39,7.18,12.42,169.84-99.18,170.33-98.34,3.17,5.48-166.81,102-164,106.89.78,1.35,156-91.49,156.63-90.43,1.72,3-158.56,86.12-155.37,91.64,6.32,11,154.2-89.71,154.5-89.2C522.6,610,379.54,693.89,381.6,697.46c6.14,10.64,124.3-81.11,128.35-74.1S406,701.6,407.86,704.84s95.45-67.3,100.73-58.16c4.11,7.12-98.34,54.87-94.44,61.64.62,1.06,91-61.15,94.73-54.69,2.53,4.38-86.29,58.31-81.85,66,4.25,7.37,80.24-55.3,84.12-48.57,3.69,6.39-80.68,53.4-78.83,56.61.08.14,80-48.75,81.14-46.84,2.92,5.06-80.86,54.15-76.32,62,.66,1.15,79.55-50.09,81.35-47,.5.87-85.48,40.89-81.19,48.33S518.07,695.43,519,697c4.79,8.31-85.37,59.9-82.78,64.39,3.52,6.08,88.57-52.09,89-51.37,3.82,6.62-95.78,61.56-93.85,64.9,2.29,4,94-64.79,98.57-56.91.4.7-106.37,50.59-100.56,60.65,2,3.52,99.8-62.25,101.81-58.78,4.22,7.3-119.86,79.59-116.07,86.15,5.26,9.11,125.64-73.71,126.15-72.83,4.14,7.16-127.21,84.33-127,84.68C418,824.34,544.31,734,548.15,740.6c3.26,5.65-134.21,83.49-128.85,92.79,6.23,10.78,139.91-84.43,141.49-81.69,2.28,3.95-136.45,88.45-134.64,91.59.86,1.5,143.56-87.42,145.52-84,4.87,8.43-146,80.26-140.74,89.43,6.45,11.17,147.75-85.44,147.8-85.34,1.54,2.66-149.3,78.44-141.89,91.28,5.43,9.4,142.4-101.18,150.61-87,4.83,8.37-142.94,85.76-135,99.55,4,6.85,152.78-101.54,158.55-91.54,7.15,12.38-137.82,85.71-130.88,97.72,3.06,5.3,156.82-104,162.64-93.9,4.69,8.12-160.5,75-151.68,90.32.22.39,9.09-6.25,9.52-5.5"/><path class="cls-1" d="M604,355.65c.21.36,5.51-3.56,5.68-3.28.71,1.22-22,31-20.07,34.33,1.76,3,64.81-40.1,66-38.09,2.57,4.45-72.81,53.39-70.7,57.05,3.72,6.43,88.47-61.27,92.88-53.63,1.31,2.27-105.9,62-101.68,69.32,5,8.7,108.93-66.12,110.33-63.7"/><path class="cls-1" d="M467.26,409.3c.05.09,1.17-.78,1.21-.7,2.34,4-48.92,45.26-48.56,45.88,2.89,5,63.86-43.47,66.71-38.52,2.07,3.59-73.77,50.07-70.68,55.41,4,7,80-51.92,82.51-47.64,4.8,8.32-81.77,55.41-81.34,56.15,2.13,3.69,84.31-56,87.5-50.52,1.08,1.88-88.43,53.58-85.1,59.33.66,1.16,92.18-56.37,93.54-54,2.39,4.13-90.91,61.19-88.82,64.8,4.23,7.33,101.4-68.22,105.59-61,5.65,9.78-107.54,57.88-103.6,64.71,3.82,6.62,108.64-75.57,114.2-65.93,3.94,6.81-109.71,76.3-109.11,77.35,11.05,19.14,248.62-169.75,260-150.09,5.13,8.89-262.26,150.61-257,159.77.14.24,256.57-157.51,260.63-150.48,14.1,24.41-273.86,127.6-260.61,150.54,4.84,8.4,257.82-155.34,260.63-150.47C709.78,399.6,432.33,527,435.7,532.89c3.61,6.25,258.75-155.65,261.46-150.95.45.79-269.17,163-263.48,172.84.41.71,255.21-176.17,267.69-154.55,8.65,15-297,157.19-285.09,177.91C431.78,605,689.51,382,706.15,410.79"/><path class="cls-1" d="M987.52,645.63s.34-.24.36-.21c.82,1.43,9.68,15.57,10.08,16.27.92,1.58,27.57-17.33,28.18-16.27.94,1.63-21.94,25.7-21.08,27.18,1.3,2.25,45.47-30,47.07-27.18.69,1.2-45.36,29.72-44.84,30.61s50.58-34.82,53-30.61c.17.29-48.1,38-47.13,39.66,1.49,2.57,163.53-100.82,166.31-96,5.71,9.9-171.38,86.83-164.31,99.09,1.82,3.15,155.31-111.46,164.75-95.12,2.73,4.73-157,106.74-155.25,109.71,7.38,12.8,149.45-103.22,156.79-90.52,7.65,13.26-163.41,79-156.64,90.75,1.49,2.59,156-91.55,156.66-90.44,3.15,5.45-160.73,82.46-151.88,97.8.68,1.18,151.78-89.59,152.62-88.12,3.75,6.49-157.86,78.44-149.54,92.85,1.79,3.11,147.17-91.71,150.09-86.66,4.72,8.18-154.3,78.7-146.62,92,2.38,4.13,143.77-91,147.24-85,7.5,13-144.68,87.75-138.49,98.48,7.92,13.7,149.46-102.66,156.55-90.38,5.62,9.73-157.14,88.4-151.63,97.94,8.58,14.87,162.52-107.25,168.33-97.19,6.54,11.34-163.37,104.34-160.92,108.58,10,17.35,184.61-110,186.08-107.43.1.17-179.1,118.14-179,118.35,7.92,13.71,182.88-127.88,192.54-111.16,4.19,7.26-199.6,98.64-191,113.5s180.83-120.23,187.69-108.36c1.77,3.07-192.63,99.5-186.16,110.71,3.3,5.71,173.67-121.37,182.81-105.54.06.1-182.11,106.34-180.69,108.8,2.18,3.77,171.35-109.77,176-101.64,2.54,4.41-166.89,115.39-165.16,118.39,5,8.59,141.16-81.88,141.33-81.6,1.87,3.24-133.85,92.49-130.75,97.87,2.16,3.73,103.53-69.17,107.6-62.12s-108.3,59.85-102.15,70.49c3.43,5.93,89.36-53.58,90.23-52.09s-92.66,47.82-89.89,52.61c1.61,2.79,87.87-53.66,89.14-51.46,2.84,4.92-91.58,47-87.83,53.48,1.38,2.38,80.29-57.16,85-49.06,4.27,7.4-82.2,52.79-79.53,57.43,1.31,2.26,65.69-42.37,67.61-39,2.69,4.66-60.28,49.94-58.41,53.17,1.56,2.71,36.45-25.32,38.3-22.11,1.07,1.85-34,28.27-31.8,32.11.47.81,16.9-11.32,17.57-10.15.94,1.63-15.59,13.08-15,14.14.48.85,8.86-6.09,9.29-5.36.13.22-6.61,9.47-6.52,9.63s.43-.27.44-.25"/><path class="cls-1" d="M899.53,219c.58,1,17.81-10.4,17.86-10.31.91,1.58-71.62,52.78-69.13,57.09,5.24,9.08,101.56-70.16,106.55-61.51,2.72,4.71-104.48,63.5-100.06,71.15,4.08,7.07,110.11-67.86,112-64.64.09.15-115.68,58.12-111.86,64.74,5.12,8.87,110.66-67,112-64.66,6.06,10.5-100.2,71.67-97.72,76,.43.76,109-69.89,112-64.69,3.21,5.56-104.58,64.73-99.76,73.07,1.11,1.92,105.1-72.6,110.27-63.66,3.57,6.2-99.7,68.95-97.53,72.72,3.52,6.1,107.15-64.72,108.39-62.57.26.46-95.62,71.66-94.92,72.87,4.18,7.24,100.94-71.54,106.68-61.6.74,1.29-103.13,64.27-102.93,64.6,1,1.78,103.44-66.21,106.25-61.35,3.44,6-94.77,69.77-93.34,72.25,1.21,2.11,102.07-65.6,105-60.6,1,1.74-103.07,59-99.19,65.71,5.08,8.8,103.43-61.91,104.38-60.27s-94.45,67.47-91.6,72.4c2.69,4.66,101.58-62.62,103.3-59.64,0,0-107.15,52.43-102.54,60.42,5,8.65,97.43-69.71,103.26-59.62,2.53,4.39-90.59,71.83-89.08,74.44,4.33,7.51,100.35-62.39,102.28-59.05.81,1.41-93.49,68.95-93.4,69.11,1.26,2.18,97.48-66.28,101.81-58.78,1.8,3.12-98.37,60.12-93,69.44,1.34,2.33,100.45-60.09,101.36-58.52,1.82,3.16-98.16,60.29-92.66,69.81,4.44,7.7,99.11-61.6,101-58.32,1.62,2.81-91.56,71.57-91.09,72.39.86,1.49,99.14-61.14,100.82-58.21,4.29,7.43-100.06,59-98.27,62.14,5.48,9.5,100-59.66,100.84-58.22,4.58,7.94-91.67,72.82-90.59,74.69,3.7,6.41,100.44-58.94,100.86-58.23,3,5.29-97.5,64.33-93.49,71.27,4.58,7.93,95.24-68.31,101-58.32,2.14,3.71-98,64.64-95.13,69.55,2.12,3.68,100.21-60.19,101.22-58.44,2.51,4.34-103.82,54.56-99.36,62.28,1.72,3,99.64-61.43,101.33-58.5s-95.17,72-94.71,72.74c.3.51,100.66-60.53,101.71-58.72.69,1.19-104.32,55.63-99.13,64.63.23.39,99.86-62.24,101.84-58.8.36.62-98.87,69.12-95.12,75.61,4.21,7.29,96.56-69.32,102.44-59.15,1.06,1.83-100.14,70.6-95.78,78.15,5.51,9.53,99.06-66.74,103.19-59.58.76,1.31-102.63,65.65-99.93,70.33.52.9,98.9-68.19,103.7-59.87,4.4,7.62-103.51,68.1-99.54,75s98.58-70.47,104.45-60.31c1.45,2.51-105.5,69.59-100.51,78.23,1.28,2.22,105.12-62,105.69-61,4.79,8.3-107.7,58-105.56,61.73,5.39,9.33,101.3-68.76,105.75-61.05,2.21,3.84-109.24,62.58-103.72,72.15,3.46,6,104.72-64.87,106.63-61.56,2.19,3.8-106.67,67.14-105.35,69.43,2.89,5,107.08-62.11,107.21-61.9,3.54,6.15-108.65,59.86-107.11,62.52,1.85,3.2,104.64-66.43,107.25-61.92,4.21,7.31-108.67,65.06-106.09,69.54,2.31,4,106.15-65.14,107.82-62.25,1.39,2.42-108.55,63.16-107.39,65.16,4.68,8.11,105.41-67,108-62.38,1.52,2.63-112.22,67.55-105.73,78.8,3.86,6.68,108.15-64.36,109-62.92S1060.61,612.52,1066,621.9c3.51,6.07,103.91-73.08,109.58-63.26,4.53,7.84-112.58,70.69-107,80.32,5.72,9.91,107.87-65.87,109.43-63.18,6.32,11-114.7,58.54-108.46,69.34,1.19,2.08,105.26-69.78,109.16-63"/><path class="cls-1" d="M449,269.34C453.27,276.81,750.11,94,750.73,95.1c10.1,17.49-201.89,129.66-197.83,136.7,0,0,206.93-140.69,216.11-124.78.76,1.31-173,102.09-164.27,117.18.93,1.61,180-109.62,182.44-105.33,0,0-166.3,103.94-166.13,104.24,2.94,5.08,167.6-109,172.9-99.83,8.92,15.45-157.1,93-151.43,102.83,7.42,12.85,163.26-95.87,164-94.66,7.64,13.24-167.19,99.24-163.22,106.11,7,12.22,170.23-104.39,172.88-99.81,3.73,6.46-173.55,100.49-172.76,101.86,3.86,6.68,166.06-115.31,174.48-100.74,9.7,16.81-180.67,109.7-173.09,122.83,5.82,10.09,180.9-129.4,191.71-110.68.57,1-197.67,110.49-191,122C655.68,290.72,840,146.77,846,157.26c.82,1.42-204.22,125.37-199.45,133.63,4.15,7.19,121.88-74.64,123.73-71.43,3.91,6.77-128.1,71.14-123.22,79.61,0,0,3.92-2.64,4.08-2.36"/><path class="cls-1" d="M646.68,27.56s.25-.15.26-.14c.17.29-1.74,17.57-1.31,18.32.26.46,15.44-9.27,15.6-9,1.69,2.92-17,30.17-16.84,30.43.47.81,31.87-22.59,33.68-19.45,1.57,2.72-34.77,21.85-33.91,23.35,2,3.42,35-24.84,37-21.35,2.64,4.58-40.4,41-38.33,44.62,2.28,3.94,55.81-34.1,56.62-32.69,2.32,4-58.09,30.19-56.62,32.73,2.25,3.91,56.38-33.18,56.66-32.71,2.33,4-58,38.22-57.07,39.77.47.81,61.8-37.55,62.61-36.15"/><path class="cls-1" d="M363,183.42c.81,1.42,26.19-16.39,26.74-15.44,3.22,5.59-103.27,63.82-99.61,70.17,6.15,10.65,176.35-116.63,182.77-105.52,11.79,20.43-231.44,143-227.25,150.29,6.59,11.4,277-184,287.4-165.93,10.13,17.55-342.75,183.32-326.79,211C218.51,349.18,577.9,95.44,585.67,108.9,604.18,141,182.74,307.23,200.41,337.84c14,24.26,388.92-247,398.66-230.17,14.79,25.61-412.38,222.8-400.87,242.73,16.42,28.45,401.49-282.8,423.57-244.55C645.7,147.3,193.19,346.54,203.86,365c25.77,44.64,491.6-325.39,509.6-294.21,9.17,15.88-517.16,280.12-503.87,303.14C226,402.36,702.66,41.35,723.41,77.28,741.11,108,190,339.8,210.49,375.27c1.84,3.17,507.1-309.68,514.42-297C736.26,97.91,190.57,338,220,388.9c17,29.5,504.3-328.52,520.48-300.5,23.39,40.51-520,299.67-514.12,309.83,1.47,2.54,190-114.54,192.07-110.89,8.25,14.28-198.95,98.3-189,115.47,7.36,12.75,148.21-89.88,150.07-86.65,2.63,4.56-142.3,98.79-142.14,99.06.29.51,99.29-57.4,99.32-57.34,4.94,8.55-103.28,50.31-97.79,59.83,2.06,3.57,90.26-56.61,92.21-53.24.17.31-82.35,66.54-82.34,66.56,1.35,2.33,53.42-33.41,54.53-31.48,2.38,4.11-53.37,30.68-50.92,34.93,2.15,3.72,41.55-27.93,43.26-25s-39.07,26.4-37.84,28.54c.09.16,27.47-17.93,28.37-16.38.54.93-18.82,15.77-18.29,16.69.05.09,5.4-3.3,5.48-3.17"/><path class="cls-1" d="M217.22,646.21c1.57,2.71,60.48-39.17,62.32-36,2.11,3.64-28.28,30.38-26.37,33.68,1.05,1.82,34.77-20.78,35.08-20.25.46.8-7.93,17.2-7.19,18.49.58,1,13.23-9.29,13.95-8l3.9,6.92s.42-.27.43-.24"/><path class="cls-1" d="M163.46,432s.42-.28.44-.25c.43.75-14.58,21.9-14.55,21.94,1,1.7,20.22-13.31,20.93-12.08.86,1.48-36.48,28.49-34.19,32.46,2,3.5,38.84-25.55,40.19-23.2,0,0-53.11,41.94-52.76,42.54,1.12,1.95,55.16-39.47,58.46-33.76,2.58,4.47-60.82,30.74-58.79,34.26s56.59-38.08,58.94-34c4.05,7-82.69,57.63-78.74,64.46,4.33,7.5,83.33-58.2,87.7-50.63.39.68-106.52,65.06-102.08,72.74,1.86,3.23,104.11-70.45,108.59-62.69,3.51,6.08-125.85,75-121.51,82.55,5.19,9,122.74-81.53,127.36-73.53,4.25,7.36-143.85,74.42-136.37,87.37,5,8.6,132.66-94.56,140.44-81.08C214,510.27,47.76,585.21,55.3,598.27c5.89,10.2,149.72-104.53,157.55-91C222.2,523.5,35.44,616,39.35,622.79c1.94,3.36,172.91-117.86,180.72-104.34,8.72,15.1-195.38,105.83-188.94,117C38.28,647.8,223.08,523,223.8,524.2,232,538.45,28,625,38,642.29c1.18,2,180-129.09,190.93-110.23,3,5.23-169.74,106.33-166.76,111.49C65.75,649.82,227.34,528,236.06,543.13,240.92,551.54,76,629.52,84.78,644.74c1.8,3.1,150.65-104,158-91.23,8.1,14-145.15,87.74-138.26,99.69C111.92,666,250.1,564.4,252.16,568c7.47,12.94-150.64,96.78-145.85,105.07,4.1,7.1,148.1-103,155.69-89.88,8.11,14-163.7,78.39-155.45,92.68,1.1,1.91,153.36-96.57,156.84-90.55,5.92,10.26-158,89.77-156.72,92.05C109.05,681.46,261,581,264.12,586.43c2.41,4.17-163.07,95.71-155.91,108.1,5.59,9.69,158.54-105.17,164.44-94.94,7.33,12.7-169.59,88-164.23,97.28,6,10.48,157.45-109.24,165.39-95.49,8.67,15-168.2,93.27-165.09,98.65,1.54,2.67,157.08-112.82,166.66-96.22,5.69,9.85-174.92,88.13-165.81,103.9,2,3.5,164.79-106.4,169.67-98,9.52,16.5-169.11,103.84-168.85,104.28,5.18,9,102.74-70.13,107.42-62,5.14,8.9-106,73.32-105.91,73.54,5.67,9.82,104.46-68.76,108.12-62.43,6.23,10.79-112.1,63.32-106.29,73.38C118.79,745.26,222,673.82,222.05,674c2.09,3.61-107.73,76.53-104.73,81.71.49.86,103.82-70.14,108.24-62.49,3.19,5.53-112.84,56.17-107.72,65S221.36,687.66,226,695.75c4.93,8.55-110.29,59.58-108,63.61,1.68,2.91,107.1-64.3,108.17-62.45,1.38,2.4-107.13,75-104,80.42,3.87,6.69,104.29-67.49,107.44-62,2.89,5-107.93,71.37-102.34,81.05C131,802.7,228,725.34,233.6,735c5,8.57-106.94,64.74-103.67,70.41,2.12,3.66,105.47-61.55,105.75-61,3.76,6.5-106.4,60.45-105.34,62.3,4.51,7.8,104.56-62.87,105.64-61,6.11,10.57-108.88,58.5-103.28,68.2,2.45,4.23,99.39-70.41,105-60.64.33.57-106.12,64.26-100.52,74,3.68,6.38,103.79-60.74,104.15-60.13,4.27,7.4-100.52,71.44-98.94,74.17,5.6,9.71,100.79-64,103.3-59.64,1.92,3.34-101.56,65.89-98.72,70.81,1.31,2.27,100.43-63.16,102.67-59.28,5.91,10.24-103.78,60.09-98.35,69.49,2.42,4.18,96.7-68.63,102.25-59,.52.9-100.66,63-99.43,65.12,0,0,100.18-61.79,101.89-58.83,3.22,5.59-96.08,71.62-94.24,74.8,2.69,4.65,98-64.12,101.26-58.46,1.87,3.23-105.23,51.61-101.16,58.64.26.46,95.73-68,101.25-58.45,1,1.72-99.5,63-93.71,73,3.1,5.37,97.23-64.57,100.88-58.24,1.41,2.42-96.49,66.18-91.74,74.42,5.27,9.12,97.94-62.77,100.64-58.1,3.6,6.23-92.48,71.2-90.66,74.35,5.79,10,99.39-60.09,100.57-58.06,2.79,4.85-98.49,60.6-96,65,5,8.57,95.93-65.89,100.48-58,2.54,4.41-104.94,50-99.45,59.55,4.2,7.28,96.05-65.75,100.51-58,5,8.74-103.89,51.78-98.77,60.65,4,6.87,98.19-62.18,100.57-58.06S204,954,205.23,956.17c5.37,9.31,99.69-60,100.77-58.18,1.73,3-98.56,59.68-94.22,67.18,5.81,10.08,101-58.48,101.06-58.35,2.15,3.71-105.68,50-100.28,59.37,2.62,4.52,99.52-61.11,101.1-58.37.21.36-98,61.35-95.89,65,3.14,5.44,97.56-64.93,101.29-58.48,4.3,7.45-95.95,63-91.62,70.53,4.08,7.07,100-62.13,101.89-58.82,5.64,9.78-101.22,58.57-99.27,61.95.61,1.05,101.48-59.81,102-58.89,5.72,9.91-92.46,69.51-91.61,71,2.64,4.58,100-64.23,102.83-59.38.47.81-102.78,58.26-100.88,61.55,1.05,1.81,98.27-67.59,103-59.45,2.41,4.17-94.15,67.4-91.59,71.83,2.35,4.07,100.79-65.74,104.06-60.08,3.91,6.78-94.58,68.12-92.12,72.39,5.74,9.94,101.36-67.86,105.41-60.86,5.86,10.16-95.56,67.87-92.28,73.55,3.67,6.35,104.31-66.51,107-61.79,5.36,9.28-100.7,64.41-96.53,71.62,2.78,4.83,104.57-69.57,108.56-62.67,3.46,6-102.17,68.34-101.89,68.82,3.73,6.46,108.88-64.94,109.78-63.38,5,8.7-103,66.65-99.69,72.38,1.87,3.24,107.29-71.57,111.46-64.36,1.86,3.23-112.74,59.76-108.72,66.72.84,1.46,105.69-75.14,111.8-64.55,2.07,3.58-101.16,70-98.3,74.92,2,3.47,105.84-73.76,111.32-64.27,2.37,4.12-105,65.58-103,69.05,3.23,5.59,104.06-69,107.94-62.32,2.93,5.07-89.81,65.78-89.68,66,4.37,7.57,81.07-52.95,83.73-48.34,1,1.76-63.44,40.14-62.64,41.53.05.08,18-11,18.26-10.55"/><path class="cls-1" d="M642.74,1184.15c.37.65,437.14-262,441.28-254.78C1092.37,943.83,619.65,1142,643.9,1184c7.33,12.7,430.66-270.85,440.28-254.19,10.42,18-427.47,243.32-422.11,252.6,21.56,37.35,415.64-258.56,423.69-244.62,14.37,24.88-409.18,231.26-402.48,242.88,13.49,23.36,381.12-268,401.88-232,9.19,15.92-393.24,224.74-389.66,230.93,8.23,14.27,382-232.41,387.13-223.51,1.32,2.3-369.48,213.48-365.15,221,13.81,23.92,345-223,355.31-205.14,2.47,4.28-331.25,168.78-314.34,198.08,15.35,26.57,280.07-170.78,284-164,6.25,10.83-265.05,147.59-259,158.1,9.84,17,235.34-146.47,239.93-138.52,8.17,14.16-220.57,125.32-216.8,131.86,2,3.48,188.7-131.52,198.47-114.59,6.78,11.73-140.59,86.22-137.62,91.36.51.9,81.56-55.86,85.36-49.28,2.26,3.92-54.95,30-53.12,33.19.19.32,22.07-13.8,22.53-13"/><path class="cls-1" d="M1015.72,851.61c0,.08,5.15-3.2,5.25-3,1.6,2.77-30.79,36-30.59,36.4,1.64,2.84,46.7-32.28,49-28.29,1.13,2-59.66,38.12-58.1,40.83.13.22,62.1-36.07,62.19-35.91,1.57,2.71-73.49,41.66-70.58,46.7.91,1.57,72.36-44.79,73.67-42.54,2,3.4-97.82,66.23-96.39,68.71,1.67,2.89,100.38-63.5,102.78-59.34,11,19-186.31,120.93-183.59,125.65,7.31,12.65,189.41-117.61,193-111.42"/><path class="cls-1" d="M637,991.19c.07.13,4-2.55,4.08-2.35.21.37-201.41,124.17-198.83,128.63,10,17.35,196.77-120.27,199.65-115.27,2.59,4.48-214.2,110.9-206.22,124.72,2.26,3.92,197.94-134.2,206.56-119.26,1.53,2.65-206.48,118.17-205.43,120,10,17.39,197-133.42,205.52-118.66,2.94,5.11-192.83,122.85-189.09,129.32,2.13,3.69,183.93-120.89,190.29-109.86,9.79,17-185.58,109.58-182.49,114.93,6.74,11.68,181.59-108.25,183.06-105.69,7.62,13.19-178.26,105.83-175.5,110.6,4.35,7.54,175.9-101.93,176.06-101.65,7.89,13.66-160.28,110.44-158.94,112.76,7,12.08,163.24-95.43,163.75-94.54,1.73,3-151.18,98.79-147.56,105.06,3.78,6.54,177.67-116.71,183.79-106.11,1.38,2.41-183.45,95.64-173.58,112.74,1.06,1.82,200.13-116.88,200.7-115.88,10.87,18.82-187,123.37-185.74,125.59,3.71,6.42,227-158.07,238.67-137.79,7.93,13.74-232.52,139.86-230.74,142.94,14,24.29,266.52-185.19,280.08-161.71,6.78,11.75-276.89,155.46-269.2,168.77.24.42,498.07-341.92,521.61-301.15S541.75,1189,548.06,1199.92c18.85,32.65,500.72-335.15,520.66-300.61.81,1.4-529.57,278.25-514.26,304.77,29,50.16,514.09-305.44,517.83-299,16.31,28.25-539.59,253-510.17,303.94,11.14,19.3,487.27-343.55,514.22-296.89.63,1.1-521.13,275.9-505.89,302.3,21.71,37.59,492.25-325,509.93-294.41,26.39,45.7-518.09,264.66-495.52,303.77,3,5.21,54.78-37.42,57.28-33.07,2,3.4-43.33,41.35-42.62,42.58,2.18,3.78,40.82-27.74,42.62-24.61,1,1.66-41,24.17-39.59,26.58.63,1.1,39.24-23.47,39.59-22.87,1.29,2.24-31.19,27.17-30.12,29,1.56,2.7,29-19.34,30.12-17.39,1.43,2.47-13,28.46-12.9,28.57.64,1.1,12.64-7.9,12.9-7.45.59,1-2.43,13.93-2.14,14.44,0,.05,2.11-1.29,2.14-1.24a17.92,17.92,0,0,1-.23,2.48s.22-.16.23-.14"/></svg>