<svg id="Layer_1" data-name="Layer 1" xmlns="http://www.w3.org/2000/svg" viewBox="0 0 1280 1280"><defs><style>.cls-1{fill:none;stroke:red;stroke-linecap:round;stroke-linejoin:round;}</style></defs><title>heart</title><path class="cls-1" d="M640.34,1268.29c.22.38,6.5-4.28,6.73-3.88.34.59-5.49,5-5.45,5.09s.83-.56.87-.5"/><path class="cls-1" d="M184.67,186.66c5.07,8.78,119.79-81.68,125.22-72.29,1.44,2.49-95.46,59.35-94.2,61.54,3.15,5.45,103.24-61.25,104-60,3.33,5.79-67.23,52.42-65.61,55.23,3.11,5.38,83.38-58.27,87.76-50.67,2,3.53-58.26,50.81-57.92,51.4,1.45,2.51,76.46-49.9,78.95-45.58,1,1.72-60.07,47.17-59.79,47.66,2.46,4.25,72.15-46.24,74.14-42.8,2.35,4.08-45.5,48-45.16,48.63,1.8,3.11,67.06-41,68-39.28,3.17,5.5-56.35,42.38-56.18,42.68,1.26,2.18,64.19-41.21,66-38.1,2.32,4-66.14,37-65.4,38.27,3.28,5.68,64.1-41.09,65.87-38,2.41,4.18-44.84,44.68-44.17,45.84s59.91-40.48,62.46-36.06c.41.71-58.91,34-56.23,38.65.88,1.53,60.88-36.85,61.62-35.57,1.05,1.83-56.59,35.42-54.65,38.78,3.39,5.86,59.68-36.79,60.69-35.05,3,5.17-41.15,44.72-40.8,45.34,3,5.18,57.82-34.64,58.36-33.7.95,1.65-50.17,38.36-49.94,38.77,2.12,3.66,57.41-33.53,57.58-33.24,2.09,3.63-57.3,32.21-56.23,34.07,1.4,2.42,56.11-35.47,57.44-33.16,1,1.69-57,30.52-54.42,35,1.38,2.41,53.91-38.51,57.11-33,2.34,4.05-52.27,34.67-50.8,37.21,2.31,4,53.44-38.21,56.63-32.69,3,5.16-48.65,37.2-47.63,39,.82,1.42,55.49-32.95,55.88-32.27,2.89,5-40.76,42.83-39.39,45.2,0,.06,53.84-33.17,54.74-31.6s-43.44,40.53-42.34,42.43c3.11,5.39,52.24-34.27,54-31.19,1,1.73-55.23,28.38-53.14,32s52.52-33.66,54-31.16c1.55,2.7-42.32,40.8-40.21,44.45,2.74,4.75,52.66-31.86,53.29-30.77,2,3.44-46.27,37-44.53,40,.59,1,50.26-35.3,53-30.58.47.81-54.59,26.92-51.64,32,1.49,2.58,52.51-31.24,52.91-30.55,1.7,2.94-51.6,31.66-51.14,32.45,2.16,3.74,52.24-31.53,52.83-30.5.08.13-47.53,36.08-46.6,37.69.83,1.43,51.49-32.49,52.68-30.42.88,1.53-48.15,34.28-45.36,39.11s50.29-34.12,52.49-30.31c.22.38-52.43,29.24-50,33.36,1.77,3.05,50.36-33.82,52.42-30.27,2.8,4.85-47.9,35.69-47.44,36.48.92,1.59,52.13-30.4,52.26-30.18,1.18,2-43.2,41.35-40.57,45.91,1.65,2.86,49.48-34.58,52.09-30.07.66,1.16-48.8,34.6-48,35.94,2.17,3.76,49.83-33.84,52-30,1.08,1.87-49.07,34.13-48.42,35.25.1.18,49.26-34.69,52-30,1.49,2.58-52.14,29.41-50.9,31.55,1,1.65,50.62-32.3,52-30,2.88,5-43.6,42.69-42.37,44.83s51-31.46,51.89-30c1.76,3-51.81,29.8-48.84,34.93,2.15,3.74,50.7-32,51.87-29.94s-51.47,30.53-50.45,32.31c1.35,2.32,51-31.48,51.87-29.95,2,3.49-48,36.34-47.11,37.88,2.37,4.12,50.49-32.32,51.87-29.94,2.95,5.11-51.29,31-48.38,36.07.63,1.11,49.17-34.61,51.86-29.94.73,1.26-48.8,35.39-48,36.72,2.1,3.64,49.64-33.83,51.88-30,.94,1.63-50.45,32.73-49.52,34.33.45.79,51.72-30.25,51.89-30,1.87,3.25-45.45,42.58-43.71,45.6,1.35,2.34,51.7-30.44,52-30,1.55,2.68-49.19,36.32-46.58,40.84,2.32,4,51.17-31.53,52-30,.52.9-53.55,27.59-51.48,31.18,1.45,2.51,50.94-31.94,52-30,2.78,4.81-52.78,29.49-49.79,34.67s50.52-32.68,52-30c.6,1-48.1,39.07-47,41.07,1.4,2.42,50-33.83,52.13-30.1,2.58,4.48-49.66,37.09-47,41.63,2,3.52,51-32.22,52.23-30.16.66,1.14-52,31.36-50.83,33.38,1.68,2.93,52.24-30.16,52.25-30.16.94,1.64-49.29,37.42-49.08,37.8,1.62,2.79,51.37-31.93,52.35-30.23,1.71,2.95-50.66,36.45-47.9,41.23,4.84,8.38,141.4-84.59,142.68-82.37,4.75,8.23-137.33,97.74-135.92,100.18.49.85,114.28-78.86,119.86-69.2,3.71,6.43-121.51,72.16-114.62,84.09,5.54,9.59,102.88-60.33,103.29-59.63,1.87,3.25-102.74,61.79-102.33,62.49C604,494,699.3,427.42,701.46,431.16c4.49,7.77-101.6,59.6-97.38,66.91.6,1,91-53.56,91.44-52.79,3,5.25-90.6,59.15-88.16,63.37.46.8,78-53.86,81.8-47.23,3.26,5.65-80.61,52.35-80,53.48,1.52,2.63,73.89-48.63,76.48-44.16,3.84,6.65-77.63,53.23-76.43,55.3,3.62,6.29,69.84-44.08,71.47-41.26.41.72-74.45,38.14-70.59,44.83,3,5.15,67.3-42.5,68.88-39.77.59,1-63.34,49-61.78,51.72.92,1.59,54.6-33.72,55.55-32.07,2.58,4.47-45.94,36.29-44.18,39.33,2,3.41,41-28,42.86-24.74,1.18,2-18.39,23.89-18.23,24.16.27.47,6.55-4.11,6.69-3.86"/><path class="cls-1" d="M839.7,162.31c1.06,1.85,20.84-14.71,22-12.71,1.58,2.74-45.56,26.39-44.62,28,3.21,5.56,66.1-43.21,68.28-39.42,5,8.63-125.16,77.74-120.72,85.43,8.05,13.93,175.88-115.2,181.79-105,3.5,6.06-212.52,122.21-206.51,132.62C753,274,965.58,90.47,978.8,113.36c3,5.13-268.81,169.65-266.3,174,8.57,14.85,294.08-195.77,305.33-176.28,11.76,20.37-319.68,189.09-317,193.74,8.51,14.74,333.35-195.42,334.63-193.2,4,6.89-345.73,195.84-341.25,203.6.82,1.42,173.86-121.33,182.93-105.62,9.73,16.85-205.8,121.5-199,133.19,2.69,4.66,121.69-75.66,124-71.61,4.38,7.59-137.9,90-135.75,93.76C668,367.7,776,300.6,776.46,301.37c2.1,3.63-122.87,87.54-122.24,88.63,1.39,2.41,98.3-61.4,100.31-57.92,5.91,10.24-107.58,65.43-105.42,69.18,3,5.14,96.69-56.29,96.89-55.94,1.65,2.85-111.35,66.55-105.64,76.43,2.45,4.26,88.35-59.16,91.88-53.05"/><path class="cls-1" d="M888.71,203.11c8.91,15.43,156.55-91.82,157.18-90.75,4.49,7.8-74.47,58.06-72.15,62.08.61,1.05,94.37-67.7,100.09-57.79,2.54,4.39-73.89,48.33-70.24,54.66,4.64,8,85.94-52.64,87.25-50.37.19.33-75.23,43.3-71.34,50,2.73,4.73,79.42-49.86,81.16-46.86.49.85-75.14,45.18-74.08,47,1.81,3.14,75-51.83,78.68-45.43,1.88,3.25-47.27,47.81-46.64,48.9,1.67,2.88,64.6-45.33,68.08-39.3,1.89,3.29-65.86,37.41-64.34,40.06,3.19,5.51,65.94-40.28,66.9-38.63,0,.07-54.72,37.31-51.6,42.72,3.22,5.58,62-37.34,62.64-36.16,1,1.72-52.6,38.44-51.58,40.21,1.19,2.05,58.37-37.14,59.87-34.56s-54.5,35.42-53.26,37.56c.79,1.37,56.78-36.57,58.42-33.73,1.77,3.06-50.28,37.66-49.94,38.24s54-37.12,56.59-32.67c1.71,3-58,29.44-56,33,.12.22,55.91-33.56,56.46-32.6.17.28-46.13,38.45-44.9,40.57,1.71,3,52-35.91,54.54-31.49.49.84-44.41,39.56-43.38,41.34.07.13,50.56-34.71,52.95-30.57,1.7,3-53,28.89-50.59,33.13,1.29,2.23,50.58-34.17,52.73-30.44,1.82,3.16-49.41,33-47.08,37.05,1.77,3.06,52.19-30.27,52.25-30.17.82,1.42-45,40.32-44.94,40.49.46.8,51.75-30.16,51.88-29.95,1.53,2.65-49.89,33.28-48.84,35.1,2.63,4.55,49.11-34.88,51.93-30,.79,1.36-51.44,31.05-49.5,34.39s49.42-34.17,51.86-29.94c1.28,2.21-52.15,29.5-51.31,31,.67,1.17,51-31.47,51.85-29.94s-48.61,37.15-48.35,37.61c.44.76,49.55-34.53,52.11-30.09.18.32-48,43.16-46.43,45.88.91,1.56,50.61-34.45,52.88-30.53,2.83,4.91-51.33,35.92-51.24,36.09,1.58,2.73,50.72-35,53.19-30.7,1.27,2.2-50.77,43.66-50,44.91.43.74,52.44-34.37,54.21-31.3,3,5.14-53.14,39.52-52.75,40.21,3,5.13,53.69-33.86,54.94-31.71,1.51,2.62-55.15,34-54.49,35.17,1.28,2.22,54-34,55.22-31.88,2.1,3.65-53.83,47.06-53.79,47.13,2,3.48,55-35.43,56.56-32.65,2.7,4.68-58.72,42.42-56.12,46.92.19.32,55.61-37.56,58-33.46,3.56,6.16-60.59,43-58.22,47.15.12.2,58.77-35.32,59.38-34.27,2.47,4.28-62.54,55.49-61.09,58,.21.37,59.75-39.14,61.76-35.66.81,1.4-62.94,41.44-62.56,42.1,2.88,5,59.21-41.91,62.55-36.11,3.16,5.46-66.09,53.79-65.3,55.15,1.24,2.16,61-43.64,64.63-37.31,1.38,2.4-66.61,38.19-65.19,40.64.93,1.63,63.15-40.56,64.93-37.49.06.11-68.47,38.46-65.95,42.82,3.64,6.31,64.7-39.29,65.54-37.84,1.36,2.36-71.93,53.46-69.62,57.46,2.11,3.64,66.28-41.58,67.71-39.09,2.65,4.59-77.87,58.52-74.2,64.88,3.24,5.6,70.36-41.27,70.64-40.78,1,1.65-73.86,49-73.28,50,1,1.7,67.91-47.82,71.64-41.36,1.31,2.27-74.92,41.32-72.72,45.13.75,1.29,68.36-48,72-41.6,2.51,4.34-86.09,59.55-80.81,68.71,1.55,2.68,72.22-48.64,75.22-43.43,4.82,8.34-82.45,58-81.19,60.2,2.79,4.82,74.08-50,77.2-44.58.66,1.14-81.42,51.26-80.36,53.08,3.92,6.8,75.72-49.18,78.08-45.08,2.65,4.59-91.25,72.15-89.92,74.44,1.11,1.92,81.63-47.14,81.63-47.13,4.89,8.46-91.08,66.86-90.6,67.7,1.28,2.21,82.83-50.71,84.09-48.54,1.92,3.34-92.74,50.07-88.26,57.83.67,1.16,85-49.28,85.08-49.12.27.47-90,41.93-85.45,49.9,1.6,2.77,84.06-51.13,85.18-49.18,4.84,8.37-94.78,67.78-94.34,68.54,1.13,2,86.78-51.8,87.51-50.52,1.63,2.81-100.14,75.3-100,75.51,4.94,8.56,86.74-59,90.58-52.3s-95.41,51.89-92.76,56.49c3.28,5.68,89.07-56.17,91.12-52.61,6,10.37-108.33,79.38-106.8,82s91.15-61,94.76-54.71c1.25,2.16-104.45,56-99.89,63.92,0,0,92.72-60.77,95.85-55.34,1.22,2.11-99.46,58.88-98.65,60.29,4.61,8,91.13-65,96.5-55.72,0,.06-115.22,82.58-113.64,85.31.83,1.44,95.85-65.5,100.25-57.89,1.32,2.29-113.4,78.13-113,78.88.63,1.08,99.94-64.56,102.91-59.42.45.77-108.92,55.41-104.81,62.53,5.95,10.3,97.92-69,103.32-59.65,6.64,11.49-115.21,77.57-114.91,78.09,4.09,7.09,103.53-64.76,105.69-61,1,1.7-128.24,76.86-122.45,86.9,3,5.24,107.61-65.53,109.08-63,2.18,3.77-135.9,91.79-132.51,97.66,3.67,6.35,111.35-69.94,113.8-65.7,5.23,9.07-115.54,67.22-115.23,67.76,4.18,7.23,110.34-72.31,114.06-65.85,3.16,5.46-139.52,95.51-137.48,99,5.87,10.18,112.7-78.66,118.58-68.46,5,8.58-135.13,85-133.16,88.44.43.75,121.05-70.82,121.45-70.12,6.15,10.66-134.38,75-130.3,82.09,5.05,8.75,122.09-72.86,123.12-71.08C1052.56,800,900.8,863.71,908.49,877c6.94,12,121.63-79.73,125.75-72.61,7.08,12.27-151.68,88.84-146,98.77.33.56,129.15-75.61,129.6-74.82,7.73,13.37-136.4,74.25-133.33,79.57,1.07,1.86,125.76-83.19,130.34-75.26,4.69,8.13-147.44,84.59-143.36,91.66,5.31,9.2,125.82-88.93,132.87-76.71.25.42-148.77,73.64-141.09,86.94,3.35,5.79,131.65-82.41,134.42-77.6,8.53,14.77-153.24,83.41-147.38,93.56,2.32,4,133.9-84.28,136.92-79,2.57,4.46-155.85,93.14-152.86,98.31.06.11,135.16-89.28,140-80.85,1.08,1.86-178.74,112.48-173.93,120.82C801,1010.52,942.79,918,947,925.2c9.59,16.62-169.24,102.43-166.36,107.42,4.27,7.4,146.45-93.46,150.3-86.78,9.6,16.63-187.76,124.46-186.29,127C748.27,1079.15,893,966.53,901.91,982c6.36,11-192.49,125.6-191.26,127.72,4.56,7.91,162.7-96.94,164-94.69,2.47,4.27-203.21,106.68-192.64,125,1.71,3,164.2-107.67,169.77-98,9.33,16.16-196.39,99.65-187,116,8.5,14.71,170.38-104.58,173.07-99.93,7.37,12.78-207.32,106.63-197,124.47,5.22,9,174.22-109.22,178-102.74"/><path class="cls-1" d="M140.15,143.25c.11.19,15.11-9.19,15.31-8.84,1.14,2-62.24,45.87-59.82,50.06,2.75,4.76,117.65-74.79,120.62-69.65,3.74,6.49-134,89.05-133.68,89.67.7,1.2,151.79-108.15,160.67-92.77C250.93,125,76.56,205.77,79.37,210.63c2.14,3.71,164.26-112.79,172-99.33.4.69-182.7,108.81-179.23,114.82,3.58,6.19,187.6-134.51,199-114.86,5.75,10-206.43,123-203.69,127.73,5.15,8.92,211-142.44,219.9-126.95,11,19-235,139.65-227.06,153.42,2.89,5,84.62-56.29,87.84-50.71C149.24,216.7,57,271.2,58.65,274c1.86,3.21,79.52-46.44,79.75-46.05.37.65-82.55,49.11-80.81,52.14,1.9,3.29,72.48-49.88,76-43.86,3,5.17-81.6,57.89-78.18,63.81.88,1.54,65.47-43.47,67.93-39.22.78,1.36-72.31,43.7-68.61,50.11,2.47,4.29,63.17-41.11,65.18-37.63,3,5.28-66.75,36.77-65.26,39.36,2.3,4,62.27-41.76,64.79-37.41,1.68,2.92-67.22,39.15-65,43,1.84,3.19,63-38,63.73-36.79,3.41,5.9-65,35.1-63.73,37.35,3,5.25,60-42.92,63.62-36.73,2.62,4.54-66.73,35.51-63.65,40.84,3.34,5.8,60.73-39.88,62.81-36.26,2.31,4-66.36,51.51-62.38,58.41.1.16,57.91-37.75,59.78-34.51,1.5,2.6-60.86,36.52-59.5,38.88,2.07,3.58,57.61-37.22,59.33-34.25,3.12,5.4-58.72,53.39-57.54,55.43,2.69,4.66,55-37.63,57.51-33.21,2.67,4.61-58.95,38.9-56.17,43.7,3.27,5.67,53.66-38.07,56.73-32.75,3.22,5.58-56.85,33.52-56.57,34,1.68,2.91,54.35-36.76,56.68-32.73.51.88-57.31,42.1-54.52,46.95.89,1.53,53.73-36.06,55.91-32.28.86,1.48-55.77,38.7-54.3,41.24,1.11,1.92,53.3-35.72,55.44-32,2.62,4.52-54.16,39.46-54,39.82,1.67,2.89,54.71-32.61,55.16-31.85,2.86,5-53.51,47.21-50.81,51.9s53.64-32.81,54.44-31.43c1.16,2-51.71,46.38-49.86,49.58.82,1.42,51.11-35.91,53.88-31.11.17.29-54.06,35.54-51.32,40.29,2,3.47,51.45-34.81,53.66-31,2.75,4.75-51.52,39.17-51.13,39.86,2,3.36,52.22-33,53.45-30.86,2,3.5-55.1,30.3-52,35.71,2.87,5,53.26-31,53.38-30.81.79,1.37-49.63,45.18-47.86,48.25,2.38,4.12,52.06-32.4,53.08-30.64,2.41,4.18-53.89,31.59-51.1,36.42.7,1.21,51.48-33.11,53-30.57,2.1,3.65-49.86,41.55-48.08,44.63,2.07,3.58,51.45-32.79,52.78-30.47,1.1,1.9-53.91,29.11-52.17,32.13,2.57,4.44,52-31.76,52.75-30.46,1.87,3.25-50.22,40-47.44,44.81,2.07,3.58,52.39-30.72,52.59-30.37.71,1.23-52.85,31-51.41,33.43,1.77,3.07,52.14-31.06,52.56-30.34,2.25,3.9-52.46,30.83-52.17,31.34,1.77,3.06,51.32-32.46,52.54-30.34,3.13,5.42-48.83,40.89-47.33,43.5.9,1.55,49.76-34.83,52.4-30.25,1.08,1.87-48.35,41.57-46,45.58s51-32.26,52.24-30.16c1.06,1.84-48.69,38.84-48.24,39.62,1.26,2.18,50.86-32.55,52.24-30.17,1.69,2.93-52.29,31.36-49.72,35.83,1.39,2.39,52.11-30.16,52.14-30.1,1.95,3.37-49,37.37-48.66,37.88.64,1.11,52.11-30.13,52.13-30.09,1.43,2.47-49.69,36.71-46.85,41.64,1.26,2.18,50.11-33.4,52-30,.3.53-45.65,44.18-44.05,46.95.34.58,51.06-31.69,52-30,2.56,4.43-50.64,33.36-48.71,36.71,2.7,4.67,50.06-33.29,52-30,3,5.12-46.51,41.09-46.24,41.57,2.92,5.05,51.46-30.89,52-30s-52.89,28.86-49.93,34c.44.78,50-33.33,51.91-30,.41.71-50.18,33.58-48.9,35.79,1.66,2.88,49.75-33.7,51.91-30,.75,1.29-46.29,41.32-43.13,46.8,2,3.38,50.56-32.23,51.87-29.95,2.56,4.42-44.26,44.1-43.33,45.72.43.74,50.36-32.59,51.88-29.95.16.29-45.93,40.74-43.56,44.84,2.62,4.55,51.6-30.38,51.85-29.94,1.69,2.93-48.8,35.43-46.76,39,.12.21,49.42-34.16,51.86-29.94,2,3.43-52.49,28.91-50.46,32.43,3,5.16,51.09-31.28,51.86-29.94.38.65-54.31,25.72-51.38,30.78.47.82,51.56-30.45,51.85-29.94,1.55,2.68-46.74,38.61-45.61,40.57,1.82,3.16,49.33-34.32,51.86-29.94.84,1.47-43.33,44.25-41.94,46.66,1,1.68,51.66-30.29,51.86-29.94.08.13-54.45,25.44-51.64,30.31,1.7,2.93,50.87-31.68,51.87-30,2,3.5-44,42.66-41.82,46.43,2.53,4.38,51.41-30.75,51.87-30,2.46,4.27-52.86,28.21-51.59,30.41,2.08,3.6,50.64-32.08,51.87-30,2.27,3.92-44.4,41.73-43.56,43.18,1.65,2.86,49-35,51.89-30,.52.9-44.08,41.84-41.57,46.2,2.82,4.87,50.11-33.13,51.93-30,.86,1.49-45.63,39.61-45.52,39.8.45.77,50.63-32.23,51.93-30S231.48,782,233,784.64c2.35,4.07,49.8-33.67,51.93-30,.9,1.57-46,39-46,39,.58,1,50.63-32.32,52-30,1.13,2-52.44,29.07-51.37,30.9,2.2,3.83,49.88-33.62,52-30,.09.15-44.84,40.19-43.19,43,.14.24,50.21-33.08,52-30s-45.29,39.34-43.2,43c.12.2,51.22-31.45,52-30,2.74,4.74-48.91,34.4-48.46,35.18,1.89,3.27,50.95-31.91,52-30.05,1.4,2.43-48.89,34.33-48,35.82,1.67,2.88,51.36-31.22,52-30,3,5.2-41.11,45.58-40.95,45.86,2.95,5.11,49.67-34.28,52.1-30.08.2.34-42.32,43.7-42.12,44,1.76,3,51.69-30.79,52.1-30.08,1.8,3.12-49.78,32.92-48.59,35,1.66,2.86,51.28-31.66,52.17-30.12,2.27,3.93-52,29.46-49.37,33.94,1.43,2.47,50.17-33.58,52.17-30.12,1.42,2.46-46,37.57-43.49,41.94,2.38,4.12,50.95-32.24,52.18-30.12,2.88,5-48.74,34.52-48,35.8,2.32,4,51-32.29,52.19-30.13,1,1.65-48.89,33.92-47.18,36.89,2.56,4.43,52.16-30.33,52.25-30.17,2.71,4.68-45.08,39.13-43.77,41.4s51.32-31.76,52.25-30.17c2.83,4.92-46.6,36.86-44.62,40.3,1.38,2.38,49.8-34.59,52.33-30.21,1.68,2.9-42.09,42.63-40.23,45.86.79,1.36,49.71-34.77,52.34-30.22,1.88,3.26-49.94,32.32-47.67,36.24.43.75,50-34.28,52.36-30.23,2.8,4.84-44.26,39.67-42.41,42.88,1,1.7,50.57-33.47,52.42-30.27,1.32,2.3-49.61,33.46-48.88,34.73,2,3.49,50.33-33.89,52.42-30.26,2.86,5-52.57,29.66-51.68,31.2,1.42,2.45,50.88-32.94,52.42-30.27,2.53,4.39-49.27,32.83-46.29,38,1.71,2.95,50.33-34,52.47-30.29,1.47,2.53-52.69,29.43-51.47,31.54,2.6,4.51,51-32.79,52.48-30.3,1.17,2-42.12,42.82-41.54,43.82,1.6,2.78,52.1-31,52.51-30.32,1.61,2.79-47.36,35.37-44.77,39.85,1.17,2,51-33,52.55-30.34.12.21-42.93,41.69-42.29,42.79,3,5.24,50-34.88,52.61-30.38,1.72,3-49.92,33.24-49.2,34.48,1.13,2,50.62-33.82,52.61-30.37,1.81,3.13-51.29,30.56-48.64,35.15,1.16,2,51.15-32.91,52.61-30.38.57,1-45.28,38.49-44,40.69,1.05,1.82,51.6-32.36,52.71-30.44,1.82,3.15-45.22,38.09-43.12,41.73,1.36,2.35,50.29-34.65,52.72-30.43,2.33,4-41.32,43.25-40.34,45,1.39,2.4,49.83-35.67,52.82-30.49.41.69-51.3,31.54-50.09,33.63.28.48,52.27-31.45,52.82-30.49,2.89,5-49.37,33.94-48.47,35.51,2.15,3.71,50.16-35.12,52.82-30.5,2.13,3.68-43.64,39.35-40.67,44.49,1.88,3.25,52-32.13,52.9-30.55s-45.59,38.49-45,39.47c1.33,2.31,51.4-33.21,52.93-30.55,2.68,4.64-46.52,36-43.59,41.09,2.23,3.86,52.73-30.93,52.94-30.57,1.22,2.11-48,34.39-45.24,39.24.11.2,51.51-33.25,53-30.62,1.14,2-50,33.45-49.21,34.86,1.31,2.27,52.07-32.3,53-30.62.09.15-46.37,36.43-43.88,40.75,2.8,4.85,52.31-31.89,53-30.62,2,3.5-48.67,35.34-48.5,35.64.3.51,52.87-31,53.09-30.65.63,1.11-49.07,34.8-48.59,35.62,2.57,4.46,50.5-35.25,53.14-30.68,1.75,3-51.31,32.07-50.34,33.74,1.87,3.23,51.61-33.37,53.16-30.69.58,1-52.6,30.44-51.28,32.73.41.7,51-34.38,53.15-30.69,1.56,2.7-49.28,34.09-48,36.21,2.76,4.78,52.51-31.8,53.15-30.68s-41.62,42.19-40.07,44.86c.78,1.36,52.95-31.24,53.24-30.74,2.77,4.8-46.43,36-43.44,41.21s51.23-34.28,53.27-30.75c2.56,4.42-55.66,26.27-52.75,31.3,1.43,2.49,50.93-34.8,53.27-30.76.19.34-51.4,31.89-50.11,34.13.28.48,52.77-31.62,53.27-30.76,2.09,3.62-49.54,33.17-47.23,37.18,2.8,4.85,51.8-33.39,53.3-30.78,1.38,2.39-47.68,36.15-46.78,37.71,2.09,3.62,52.68-32,53.38-30.82S553,1178.09,554.65,1181c2.56,4.43,52.72-32,53.39-30.82,2.34,4-43.58,40.88-43.3,41.35.63,1.09,52.91-31.75,53.43-30.85,1.57,2.72-44.7,39.35-43.88,40.78,1,1.75,52.44-32.79,53.53-30.91.52.91-41.93,42.55-41.57,43.16,2.54,4.4,52.67-32.42,53.54-30.91.08.15-47.15,36.73-46.11,38.53,3,5.13,198.63-126.84,203.9-117.72,8.49,14.7-201.92,118-194.79,130.32,1.06,1.83,155-101.46,160.2-92.49,6.81,11.8-148.68,101.81-145.71,106.95,5.64,9.77,95.5-61.43,98.23-56.71,3.42,5.93-96.34,56.38-93.32,61.61,4.34,7.51,75.64-45.44,76.4-44.11,3.68,6.38-66.57,53.36-65.81,54.68.9,1.55,34.11-22.07,35.14-20.29,1.59,2.75-31.43,23.56-30.83,24.59.13.23,14.26-9.58,14.84-8.57.74,1.27-13.61,9.67-13.45,10a7.67,7.67,0,0,0,.79-.45"/></svg>