<svg id="Layer_2" data-name="Layer 2" xmlns="http://www.w3.org/2000/svg" viewBox="0 0 1280 1280"><defs><style>.cls-1{fill:none;stroke:red;stroke-linecap:round;stroke-linejoin:round;}</style></defs><title>meaningful</title><path class="cls-1" d="M290.84,622.13c.4.69,6.77-4.81,7.16-4.14s-18.45,17.34-17.8,18.46c1.51,2.63,39.69-23.33,39.87-23,2.92,5.06-43.54,40.31-42.1,42.8,1.75,3,59.69-40.78,62.42-36,1.18,2-61.6,46.48-60.44,48.48,2.95,5.12,66.3-44.73,69.09-39.89,3.9,6.76-59,51.46-57.73,53.68,3.93,6.82,69-43.65,70.68-40.81,2.05,3.56-65.66,46.23-64.34,48.51,1.91,3.3,69-45.85,71.57-41.32,1.38,2.39-70.42,41.1-67.29,46.51,2.85,4.95,68.23-48.47,72.16-41.66,3.25,5.62-63.91,50.14-60.94,55.28,4.25,7.36,73.33-43.25,73.72-42.56,2.39,4.13-64,52.88-61.28,57.66C327.07,726.63,399,677,401,680.51c.77,1.34-73.72,44.68-71.85,47.92,2,3.54,75.75-44.18,75.94-43.84,1.32,2.28-67.16,53.36-65,57.16,4.4,7.61,76.28-46.76,77.46-44.72s-71.21,50.78-68.28,55.86c1.14,2,78.34-46.1,78.72-45.45,2.8,4.86-69,55.58-65.88,61,3.38,5.86,76.87-52.71,80.48-46.46,2.24,3.87-80.24,44.45-75.8,52.14,3.81,6.59,76.58-54.7,81.12-46.84.12.22-81.81,44.51-78.92,49.51,3.1,5.37,77.49-53.81,81.41-47,3.39,5.86-78.91,50-78.75,50.24,1.6,2.77,77.42-54.76,81.78-47.22.79,1.37-77.48,52.1-76.84,53.22,3.82,6.61,79.35-53,82.45-47.61.66,1.13-77.7,53.23-77.43,53.7,3.78,6.55,80.68-52.25,83.14-48,.28.5-85.57,43.34-82.29,49s82.17-49.94,83.25-48.06c1.81,3.12-75.73,57-75.33,57.67s81-54.5,84.32-48.68c3.88,6.72-80,51.93-76.14,58.6.91,1.58,81.27-56.5,85.42-49.31,4.86,8.42-84.69,53.2-83.15,55.86.72,1.25,87.8-51.45,88.13-50.88,4,7-87.5,61.4-85.41,65,3.33,5.76,92.66-59.73,95.36-55,3.52,6.1-97.41,78.7-97.27,78.94,4.67,8.08,107.2-72.22,111.68-64.47.8,1.38-116.37,69.11-115.76,70.17,2.08,3.6,113.19-76.14,117.87-68"/><path class="cls-1" d="M88.84,375c0,.07,6.46-3.81,6.49-3.75.65,1.11-15.06,10.61-14.47,11.63,1.29,2.24,22.87-14.82,23.57-13.61,1.85,3.21-28.89,30.1-27.39,32.69,1.72,3,45.46-29.09,46.69-27,.19.33-48.76,32.41-46.69,36,1.16,2,53.44-31.67,53.79-31.06C133.78,385,75.72,413,77,415.29c2.88,5,55-36.15,56.92-32.86,1.72,3-58.39,52.93-56.92,55.47,1.81,3.14,69-44.1,70.84-40.9,2.67,4.64-74.79,38.07-70.84,44.9,1.82,3.15,71.62-44.57,73-42.15,4.58,7.92-73.43,56.2-73,56.92,2.34,4.05,74.86-53.3,79.22-45.74,1.73,3-82.8,56.86-79.22,63.07,2,3.51,77.7-53.86,81.59-47.11,1.76,3-85.41,58.79-81.59,65.4,2.22,3.85,83.2-50.1,84.1-48.55,5.05,8.75-85.58,66.73-84.1,69.29,2.74,4.75,86.87-50.29,86.93-50.19,3,5.13-89.26,63.59-86.93,67.62,4.27,7.4,86.29-56.8,89.31-51.56,0,0-94.1,57.07-89.31,65.38,3.59,6.22,90.38-54.08,91.2-52.66,1.42,2.45-96.75,58.77-91.2,68.38,3.31,5.73,92.49-55.39,93.35-53.9s-96.78,52.07-93.35,58c.87,1.5,90.1-60.83,93.91-54.22s-95,69.58-93.91,71.52c4.33,7.5,93.81-59.87,96.28-55.59,2,3.43-99.29,72.29-96.28,77.51,1.45,2.5,98.64-58.41,99.28-57.32,2.36,4.1-99.3,58.5-99.28,58.53,4.14,7.18,97.49-60.79,99.44-57.41,3.25,5.62-104.32,55.94-99.44,64.39.11.19,98.38-61.45,100.4-58,5.76,10-105.89,62.64-100.4,72.15,2.12,3.68,101.71-60.16,102.34-59.08,4.42,7.65-105.54,74-102.34,79.5,1.9,3.29,101.09-67.69,105.13-60.69,1.11,1.92-106.84,79.48-105.13,82.45C78.25,670,179,594.77,185.15,605.48c4.21,7.3-110.94,75.38-108.11,80.29,3.94,6.81,105.28-73,110.55-63.83C194,633,73.42,685.75,77,692c2.82,4.88,109-68.56,111.41-64.32,3.89,6.74-114.89,79.8-111.41,85.83,4.21,7.28,113.12-68.14,114.35-66C195.47,654.59,76.33,716,77,717.28c.07.12,109-76.39,114.86-66.31C198.26,662,72.23,712.13,77,720.46c3.95,6.83,111-74,115.29-66.56C194.85,658.25,72.21,716,77,724.38s113.6-70.73,115.83-66.87c.09.16-121.31,67.21-115.83,76.7,1.75,3,114-73.1,117.17-67.65C200.3,677.11,70,740.4,77,752.68c1.75,3,117.89-72.23,119.7-69.11C199,687.43,71.82,745.71,77,754.75c3.56,6.16,119.11-70.78,120-69.27,4.5,7.79-113,73.75-108.4,81.78,1,1.71,108.75-68,111-64.1,4.69,8.13-113.84,58.8-110.43,64.71C93.46,775.22,196,697.46,199.78,704,205.86,714.58,86,761,90.93,769.6,95.67,777.81,197.18,699.42,201,706c1.91,3.3-112.91,58.22-109.5,64.13,4.36,7.55,105.79-70.77,110-63.5,1,1.73-112.24,58.56-108.52,65,5.69,9.86,103.57-74.13,109.78-63.38,5.89,10.2-104.56,68.13-103.82,69.41,5.66,9.82,103-73.33,109-62.92,3.14,5.44-109.3,58.61-103.76,68.21,5.32,9.21,106-66.67,108.35-62.55,1.6,2.77-99.34,70.16-97.26,73.77,1.08,1.87,107-62,107.14-61.85.71,1.23-101.61,67.24-101.33,67.74,5.74,9.93,103.16-67.46,106.58-61.54,2.51,4.35-104.84,62.09-103.17,65,3.21,5.55,105.55-62.64,106.29-61.36,2.59,4.5-100.37,66.16-98.73,69,5.51,9.54,100-70.91,105.68-61,4.79,8.3-102.48,63.21-101,65.72,4,6.88,103.71-63.68,105.36-60.83.54,1-99.68,62.72-94.31,72,1.67,2.9,101.8-65.55,104.73-60.47,5.7,9.86-98.81,62.48-93.27,72.07,4.7,8.14,98.66-70.09,104.35-60.25,1.83,3.18-101.11,59.74-95.84,68.87,2.3,4,99.76-67.89,104.21-60.17,4.29,7.42-96.26,64.82-91.54,73C182,863,282.5,796,284.73,799.86c5.35,9.28-96.41,64.46-91.06,73.74,4.9,8.48,104.24-61.93,105-60.62,3.58,6.21-104.21,59.58-101.65,64,5.8,10.06,101.53-67.1,105.2-60.74,5.64,9.77-101.84,63.45-100.87,65.13,1.8,3.11,99.51-71.52,105.6-61,3.49,6-97.95,68.11-97.12,69.55,1.26,2.19,101.2-70.81,106.56-61.52,1.14,2-107.94,56.64-103.08,65,5.3,9.18,106.66-62.52,107.06-61.81,4,6.92-103.63,61.35-98.16,70.82,1.54,2.67,102.9-72.66,108.64-62.73,5.86,10.16-97.58,71.89-94.74,76.81,5.28,9.13,105.84-75.95,112.27-64.82C352.54,858.94,239,919.19,239.5,920c6.26,10.83,107.8-75.4,113.5-65.53,4.54,7.86-105.55,71-101.95,77.22,2.87,5,112.9-79.43,119.07-68.75C371.68,865.62,246.18,923,251.39,932c.74,1.29,114.87-76.52,119.28-68.87,4.71,8.16-118.32,67.36-114.86,73.34,5.23,9.07,122.3-71.7,122.77-70.88,4.14,7.16-117.9,71.85-112.39,81.39,3.16,5.48,244.6-163.94,254.44-146.9,10.88,18.86-257.57,138.27-250,151.42C273.78,956.94,523,801,525.11,804.61c1.37,2.38-255.72,137-243.8,157.7,6.94,12,252.27-150.74,254.47-146.92C547.37,835.47,273,947.8,281.4,962.4c11.15,19.31,244.46-164.26,254.48-146.92,11.86,20.55-263.75,130.08-253.38,148,4.42,7.66,251.21-152.57,254.47-146.92C544.41,829.48,274.38,946.27,286.91,968c6.33,11,246.88-160.06,254.47-146.92,7.42,12.85-243.47,157.8-243.11,158.43,10.6,18.36,252.43-150.39,254.44-146.91,13.57,23.5-249.06,148-243,158.5,1.26,2.19,248.15-157,254.07-146.69,3.35,5.8-261.74,130.89-250.58,150.22C326.29,1017.26,554.68,826.67,567,848.05,579,868.87,313.25,992.27,316.55,998,322.14,1007.66,568,848,570.1,851.6c1.7,2.95-248,146.61-240.6,159.49,12.4,21.47,241.12-163.8,251.76-145.36,2.49,4.3-254,133.93-241.22,156,6.77,11.72,245.43-151,249.44-144,.56,1-249.56,142.82-248.07,145.41,3.15,5.44,245.23-150.51,249.09-143.81C594.92,887,350.27,1030,353.27,1035.15c12.43,21.53,232-164,245-141.47,2.32,4-253.7,125.2-243.29,143.23,10.17,17.62,233.59-159.58,244.29-141,1,1.67-253.3,131.46-239.44,155.46,1.93,3.34,237.87-152.59,244.47-141.15,13,22.49-247.77,137-244.47,142.7,4.73,8.2,236.75-155.31,244.81-141.34.82,1.41-246.38,149.3-244.81,152C368.64,1078.77,596.53,905,606,921.44c7.41,12.83-253.9,132.57-246.14,146,11,19,239.9-152.51,246-142,5,8.64-251.89,151.49-246,161.76,9.61,16.64,237.67-155.71,245.67-141.84,2.66,4.59-253.81,148-245.67,162.09,9.43,16.34,232.23-165.13,245.67-141.84,1.89,3.27-259.15,140.29-245.67,163.65,4.76,8.23,242.77-146.88,245.67-141.84,7.23,12.52-257.84,137.71-245.67,158.79,2.45,4.25,242.18-147.89,245.67-141.84,1.8,3.11-252.94,132.45-245.67,145.05,5.95,10.3,238.67-154,245.67-141.84,8.16,14.13-249.58,140.82-242.17,153.65,6.29,10.9,228.88-162.84,242.17-139.82,12.16,21.05-252.78,121.11-239.93,143.37.31.53,239.21-139.79,239.93-138.53S364,1159.54,374.91,1178.41c9.95,17.23,224.84-143.17,230.62-133.15,7.16,12.39-235.72,124.12-230.11,133.85,4.15,7.19,224.75-142.14,230.11-132.85,12.89,22.32-223.91,140-221.56,144.13,3.38,5.85,219.68-131.18,221.56-127.92,4.81,8.33-225.32,117.84-214.62,136.37,12.25,21.22,203.91-142.48,214.62-123.91,4.66,8.06-211.3,126.21-208.8,130.52,7.4,12.82,201.5-133.2,208.8-120.55,7.68,13.3-198.27,128.49-194.39,135.22,9.61,16.64,189.33-121,194.39-112.23,9.88,17.11-195.85,106.85-190.94,115.35,2.88,5,182.36-125.1,191-110.24.6,1-185.69,106-176.4,122,.44.76,173.42-107,176.4-101.84,3.69,6.4-176.71,91.73-167.3,108,9.17,15.88,167.1-96.93,167.3-96.59,5.42,9.39-157.24,91.52-148.78,106.16.87,1.51,134.28-94.33,141.56-81.73,6.18,10.71-128.49,77.51-122.79,87.39,1.82,3.16,104.82-66.59,107.45-62,3.53,6.12-89.51,58.22-86.63,63.22,2.3,4,66.88-42.3,68.48-39.54.27.48-39.21,30.74-38.93,31.22.5.88,11.42-6.86,11.53-6.66"/><path class="cls-1" d="M933.5,614.84a9,9,0,0,0,1.34-.78c1.4,2.43-26.79,24.3-26.15,25.42,1.5,2.59,42.9-28.49,44.51-25.7,3.22,5.57-98.4,71.14-95.4,76.35,4,6.89,114.8-75.76,118.9-68.65,1.69,2.92-141.48,86.73-139.85,89.55,7.83,13.57,138.24-97.32,145.82-84.19,6.3,10.91-197.3,133.35-196.47,134.79,6.2,10.74,200-124.69,204-117.76,4.67,8.09-246.29,150.89-242.87,156.81,9.56,16.57,233.26-156.59,242.74-140.15,8.55,14.8-266.48,145.27-259.61,157.16.2.34,247.68-167.09,258.11-149C999.49,687.6,701.88,825.6,709.62,839c4.39,7.6,254.61-169.44,264.32-152.61,16.32,28.26-301.11,153-286.25,178.71,5.63,9.76,249.94-179.37,265.12-153.07C964.74,732.7,682.09,857.87,686.9,866.19c1.75,3,258.6-163.93,264.94-153C966.62,738.84,670,884.45,672.55,888.93c10.13,17.54,253.38-153.63,256.56-148.12,13.76,23.83-267.18,136.24-258.3,151.61,11.12,19.27,249.36-155.62,254.4-146.88,11.73,20.31-266.16,164.65-262.33,171.27,1.48,2.57,221.23-150.73,231.19-133.48.84,1.45-232.4,143.64-231.1,145.89,8.12,14.06,211.14-122.81,211.53-122.13,4.63,8-219,118.74-211.53,131.68,1.6,2.78,202.95-120.14,204.23-117.92C871.58,828.44,657.19,942,663,952c3.45,6,191.2-134.53,201.65-116.42,2.22,3.83-207,126.8-201.65,136.08S861.28,846.84,865.76,854.61c.9,1.55-212.7,114.86-202.79,132,3.81,6.61,208.54-125.73,210.85-121.73,5,8.7-220.75,108.54-210.85,125.69,2.91,5,210.77-132,215.23-124.26,7,12.17-225.05,110.28-215.23,127.29,8.55,14.82,218.19-130.13,220-127,4.68,8.1-230.69,114.32-220,132.87,11,19.07,231.62-151.17,239.17-138.09,1.79,3.11-248.14,123-239.17,138.51,3.53,6.13,234.85-154.18,242.9-140.24C911.25,869,656.22,1007.11,663,1018.8c29.32,50.78,525-311.19,528.49-305.13,17.63,30.53-529.53,324-528.49,325.79,2.61,4.52,516-326.74,528.5-305.13,3.49,6-537.76,301.76-528.5,317.8,9,15.6,498.58-357,528.5-305.13,10.37,18-529.33,325.09-528.5,326.53.49.85,498.1-289.38,498.88-288S641.5,1037.47,663,1074.65c8.68,15,491.57-294.74,496.31-286.54,6.13,10.61-501.23,280.56-496.31,289.07,18.61,32.25,488.58-286.48,490.48-283.18C1164.63,813.36,649,1067.8,663,1092c21.7,37.6,448-278.12,456.44-263.52,24.19,41.9-474.63,237.91-456.44,269.41,16.41,28.42,442.64-256.18,442.91-255.72,7.49,13-468.12,225-442.91,268.69,17.58,30.44,398.58-263.64,413.09-238.5,5.36,9.28-435.19,209.9-413.09,248.17,10.79,18.69,377.22-249.25,390.85-225.65,2.6,4.51-398,229.71-390.85,242,2.56,4.43,350.72-208.21,353.2-203.92.41.71-360.74,192.66-353.2,205.72C667.79,1147,998.06,912.94,1012,937.16,1029.29,967,656.57,1144.35,663,1155.46S970.9,971.75,973.47,976.2c6.49,11.23-314.63,173.22-303.54,192.43,5,8.69,259.69-160,264.06-152.46,12,20.78-267.84,146.08-258.66,162,12.45,21.58,229.73-140.9,233.31-134.7.8,1.39-241.24,120.84-230.8,138.92,12.22,21.16,224.82-143.62,230.8-133.26,11.12,19.28-224.76,142.59-223.47,144.81,2.28,3.95,212.14-148.64,223.47-129,5.56,9.64-224.52,123.5-212.75,143.89C705.27,1225,897.14,1066,908.64,1086c10,17.4-214,119.32-210.24,125.91,3.52,6.09,205.38-129.79,210.24-121.38.63,1.09-207.94,118.31-198.64,134.41,5,8.64,198.31-115.24,198.64-114.68,4,7-203.41,101.37-192.08,121,6.82,11.8,191.32-112.22,192.08-110.9,4.39,7.6-180.62,119.92-180.35,120.38,7.19,12.45,171.68-119.15,180.35-104.13,10.16,17.6-179.72,102.9-178.09,105.73.24.41,172.2-113,178.09-102.82.83,1.43-181.93,95.67-177.62,103.15,5.18,9,175.46-106.3,177.62-102.55,6.63,11.48-163.65,102-157.3,113s144.71-97.43,150.73-87c3.5,6.08-145.24,78.41-138.26,90.49.88,1.53,123.56-76.24,125.68-72.57,5.09,8.82-94.86,70.3-93.92,71.93,1.31,2.26,58.91-39.9,61.46-35.48.79,1.37-39.69,23.91-37.89,27,.12.2,13.54-8.17,13.69-7.91"/><path class="cls-1" d="M1140.76,377.55c.41.71,8.84-5.36,9-5.17s-25.81,18.53-25,19.87c2,3.48,39.75-23.29,39.9-23,1.55,2.69-56.31,46.07-53.67,50.63,3.06,5.31,71.15-43.93,72.38-41.79,4.16,7.21-75.65,41.95-73.07,46.42,2.46,4.27,74.33-46.06,75.69-43.7,2.07,3.59-77.27,48.37-76.56,49.59,2,3.49,77.17-50,79.53-45.92,1.17,2-81.63,48.82-80.3,51.11,3.17,5.5,80.31-51.84,82.68-47.74,4.23,7.34-86.36,46.35-83.27,51.7,3.66,6.34,83-48.93,83.47-48.19,4.3,7.45-88.29,45.29-84.11,52.52,3.89,6.74,81.69-52.75,84.11-48.56,3.82,6.62-90.3,49.52-85.49,57.85,2.26,3.92,83.74-52.38,85.49-49.36,5,8.72-90.81,57.31-87.52,63,.55.94,84.72-55.38,87.52-50.53,2.92,5.06-95.23,58.55-90,67.53,1.28,2.23,85-60.66,90-52,1,1.77-92.48,52.54-90.61,55.78,1.75,3,86.18-60,90.61-52.31.71,1.23-94.63,60-92.33,63.94.35.6,91.66-54.47,92.33-53.31,5,8.66-96.17,73.88-95.55,75,2.57,4.45,94.32-57.29,95.55-55.16,2.94,5.1-100.67,59.65-97.12,65.79s91.64-65.56,97.12-56.07c1.67,2.89-101.17,52.81-97.56,59,4.15,7.2,95.19-60.42,97.56-56.32,2,3.44-103.86,58.69-99.13,66.87,5.18,9,94.31-65.58,99.13-57.23,2.07,3.59-104.86,57.14-100.29,65.06,1.42,2.47,100.19-58.08,100.29-57.9,5.5,9.51-107.61,58.17-101.82,68.19,3.34,5.79,99-63.68,101.82-58.78.68,1.18-105.84,56-102.31,62.11,5.68,9.83,99-64.78,102.31-59.08,1.51,2.61-107.53,66.05-104.2,71.81,5.56,9.64,102-64,104.2-60.17,2.13,3.69-110.44,69.06-106.53,75.83,1.87,3.24,103.46-66.83,106.53-61.5,1.7,2.95-113.39,78.58-110,84.54,6.18,10.7,107.09-68.44,110-63.48,6.35,11-114.28,61.64-110.62,68,5.12,8.86,110-64.91,110.62-63.86,3.52,6.09-115.24,56.71-110.72,64.54,4,6.93,107.65-69.23,110.72-63.92,6,10.48-115.93,62.13-111.57,69.68,1.7,2.94,109.28-68.39,111.57-64.42,2,3.53-120.66,74.07-114.57,84.62,2.11,3.64,114.1-67,114.57-66.15.83,1.44-120.55,78.87-117.3,84.52,3.61,6.24,114.6-72.4,117.3-67.73,5.1,8.84-123.69,86.74-120.85,91.66,4,6.84,117.54-75.52,120.85-69.77.72,1.24-126,81.92-124.31,84.92,5.81,10.08,117.66-83.3,124.31-71.77,5.21,9-128.43,68-125.42,73.18,4.48,7.76,124.55-73.92,125.42-72.41C1199.28,649,1036,736.07,1038.83,740.93c8.69,15.06,145-101.42,152.63-88.12,3.21,5.55-174.05,90.23-166.28,103.7,5.35,9.26,159.43-107.88,166.28-96,2.29,4-169.64,94.36-167.75,97.65,8.34,14.43,161.86-107.06,167.75-96.85,2.72,4.7-177.88,83.18-169.11,98.37,3.94,6.82,167.36-100.67,169.11-97.64,9.06,15.69-196,115.47-192.07,122.21,9.2,15.93,191.06-112.66,192.07-110.9,10.15,17.57-196.05,109.24-194,112.86,4.9,8.48,185.38-126.86,194-112,1.28,2.22-238.36,139-232.77,148.68,2.1,3.64,232.53-134.82,232.77-134.39,12.49,21.63-248.86,114.87-236,137.12,3.81,6.6,233.35-140.89,236-136.26,1.76,3-280,139.54-268,160.25,5.44,9.41,264.27-161.3,268-154.76"/><path class="cls-1" d="M477.13,81.4c.39.68,21.34-12.35,21.35-12.33,1.32,2.28-53.7,31.35-52,34.34,2,3.41,82.65-55.74,86.12-49.72,2.87,5-114.41,62.18-109.41,70.84,4.07,7.05,134.32-88.52,139.07-80.29.28.5-173.27,100.62-166.65,112.08,10.12,17.52,207.59-120.3,207.79-120C612,51.11,377.35,150.71,387.3,167.94c8.94,15.49,218.25-153.88,230.32-133,7.25,12.55-258.57,140.3-247,160.3,5.91,10.22,266.31-182.93,278.94-161,11.3,19.57-299.41,141.33-283.21,169.39,5.49,9.49,276.51-197,292.7-169C673,58.8,350.78,230.28,353,234.07c14.5,25.12,335-202.73,339-195.74,18.5,32-359.15,183-343.78,209.56,6.47,11.21,354.53-213.16,358.2-206.8C718,61.11,343.73,256.48,345,258.69c6.85,11.87,361.25-234.26,372.38-215C724.05,55.26,336.81,274,340,279.59,342.75,284.29,716.88,13,738.09,49.77c14.2,24.6-414.44,225.12-401.23,248C338,299.67,738.29,26.55,755.37,56.14c19.5,33.78-435.62,228.31-420.12,255.16C359.36,353,749.84,30.27,767.88,61.52c1.25,2.15-441.18,248.06-433.5,261.37,11.9,20.6,437.31-268,444-256.36,18,31.25-470.2,233.54-444.54,278C342,358.58,776.12,40.06,797.39,76.9,818,112.6,324.88,345.08,334.55,361.82c17.55,30.4,451.73-320.37,477.52-275.7,18.13,31.41-500,254.41-475.43,297C342.71,393.67,801.22,50,829.33,98.7,843.57,123.36,311.56,345.75,338,391.47c12.36,21.41,491.68-298.53,498-287.54,4.54,7.87-521.66,252.84-496.4,296.6C352.06,422.14,835.41,96.9,842.93,109.92c26.65,46.16-527.35,249.28-503.27,291,24.8,42.94,487.62-318.36,503.57-290.74,11.85,20.53-507.32,293.63-500.12,306.1C353.36,434,826.11,71.15,854.8,120.85c28.26,49-530.34,265.87-510.47,300.28,27.92,48.36,496.83-326.7,514.08-296.8,21.35,37-534.87,269.16-508.75,314.4,27.95,48.41,504.49-330.07,521.29-301,9,15.62-537.55,279.41-514.4,319.5,28.78,49.85,505.35-341.81,527-304.27C895.16,173.07,356,460.43,364.41,475,371.66,487.54,886.63,154.11,895,168.63,908.77,192.45,361.5,470.9,368.74,483.44c5.62,9.73,519.72-327.14,531.45-306.83,25.86,44.79-548.95,277-522.52,322.81,24.3,42.09,507.23-349.83,531.9-307.1,4.31,7.46-540.68,291.21-527.37,314.26C403,542.64,898.76,174.17,913.56,199.8,933.46,234.28,361,468.46,388.14,515.56,400.71,537.32,911.23,197,918.4,209.42c21.25,36.81-539.8,287.91-525,313.48,19.53,33.83,520.8-319,528.75-305.28,8.91,15.45-533.48,292.82-519,317.82,2.28,3.95,519.53-312.77,525.08-303.16,22.72,39.35-548.53,262.53-525,303.22,17.89,31,518.7-314.17,525.06-303.14,23.33,40.4-530.63,292-522.34,306.39,29.42,51,503.65-337.33,523.8-302.42.5.87-535.9,275.24-513.51,314,20.08,34.78,496.28-337.65,518.41-299.3,12.57,21.76-534.11,266.66-510.47,307.6C443.49,592.29,927,243.43,937.72,262.09c22.85,39.58-536.21,254.32-509.58,300.44,28.39,49.17,500-314,511-295,3.41,5.9-530.63,256.15-504.84,300.83C449.91,595.48,934.07,263.75,941,275.78c25.6,44.35-498.32,298.08-496.2,301.74,17.94,31.09,492.85-298.38,498.84-288,2.82,4.89-492.15,284.76-483.34,300,3.32,5.74,462.15-321.87,486-280.58S449.05,565.27,465,592.83c.55.95,461.37-313.84,481.92-278.24,17.25,29.87-498.91,245-478.17,280.91C491,634.1,946.87,318.67,947.2,319.24c26.55,46-496.42,239-472.8,279.94C495,634.81,940.91,314.27,947.65,326c19.74,34.18-465.54,270.78-459.18,281.79,5.68,9.85,443.58-293,459.55-265.32,8.54,14.8-478.51,229.93-457.34,266.6C501,627,940.67,332.39,948,345c5.62,9.74-457.9,262.19-456.64,264.38.05.08,451.27-272.9,456.62-263.63,3.71,6.42-473.54,232-454.6,264.79C512.69,644.07,935.68,327,947.89,348.11c10.88,18.85-454.79,241.45-437.74,271,19.24,33.33,419.77-281.66,436.79-252.18,2.14,3.7-425.87,248.55-419.44,259.69,9,15.58,400.4-270.19,417.29-240.92,16.79,29.08-413.08,242.57-413.06,242.61C549,658.12,928.57,363.36,944.07,390.21,951,402.27,530.79,626,532.22,628.47S932.16,370.25,944,390.74C962.49,422.79,530.91,608.53,545,633c9.76,16.91,392.59-235.65,396.48-228.91,8.12,14.08-404.2,206.79-390.33,230.82.07.12,387.07-228,389-224.61,9.17,15.88-364,229.42-362.86,231.34C587.21,658.7,931.58,433.81,933,436.3,940.94,450,573.49,633.66,578.2,641.81c1.15,2,348-215.95,354.53-204.69,10.55,18.28-362.18,188.19-352.4,205.12,5.17,9,346-212.89,351.67-203,7.86,13.61-341.57,191.26-332.92,206.25,9.65,16.72,318.25-202.25,326.27-188.36C933.23,470.75,603.3,630.47,612.86,647c8.53,14.78,296.59-195.12,306.93-177.21,11.45,19.82-299.07,159-287.95,178.27,14.17,24.53,271.07-176.2,279.6-161.43,1.24,2.16-243.36,160-243.15,160.42,5.25,9.09,214.59-145,223.73-129.17,11.85,20.52-231.65,107.5-219.41,128.71,1.87,3.23,210-137.36,217-125.27,4.91,8.51-191.36,109.63-185.2,120.31,8.49,14.69,159.34-105,165-95.26C873.76,554,696,627,704.42,641.65c1.87,3.22,157.45-108.12,164.9-95.21,4.49,7.77-86.84,65.3-86,66.81,1.18,2,21.07-12.82,21.35-12.33"/></svg>