<svg id="Layer_2" data-name="Layer 2" xmlns="http://www.w3.org/2000/svg" viewBox="0 0 1280 1280"><defs><style>.cls-1{fill:#fefcfc;}.cls-2,.cls-3{fill:none;stroke-linecap:round;stroke-linejoin:round;}.cls-2{stroke:#ef0405;}.cls-3{stroke:#fefcfc;}</style></defs><title>Artboard 1</title><path class="cls-1" d="M1279.67,1279.35H.33V.65H1279.67ZM639.1,31.66C298.57,31.36,24.47,302.08,23.77,639.4c-.69,339.44,273.2,612.92,613.84,612.92,338.75,0,614.5-273.54,614.79-609.84C1252.68,305.66,977.88,32,639.1,31.66Z"/><path class="cls-2" d="M373.53,155.37c5,8.63,199.81-138.65,209.9-121.18C586,38.68,469.79,111.84,471.59,115c2.09,3.61,139.2-89.95,143.35-82.76,5.86,10.15-124.85,64.37-118.3,75.72,2.28,3.94,125.41-86.91,131.69-76,.29.49-136.26,62.88-129,75.4C502.71,113.2,624.52,22.45,630,31.86c3.88,6.72-107.39,58.85-101.5,69.05.95,1.64,117.36-72.86,119.57-69,5.3,9.18-96,62.82-94.93,64.77.69,1.2,105.69-74.28,111.43-64.33,1.48,2.56-91.47,52.42-86.38,61.24,4.28,7.4,99.5-68.73,104.39-60.27,2,3.5-65.08,52.89-62.44,57.47.16.27,93.6-55.29,94.14-54.35,2.56,4.43-59.16,50.81-57.09,54.38.78,1.36,82-58.32,86.74-50.08,3.39,5.87-58.48,47.69-56.07,51.86,2.53,4.4,80.58-48.13,81.27-46.92s-80.77,44.53-79.31,47.07c1.63,2.82,77-53.46,80.92-46.71,1.73,3-58.89,45.64-56.69,49.46,3.75,6.49,75.11-48.3,77.25-44.6,1,1.75-63.92,45.07-63,46.61,1.24,2.15,74.47-44.73,75.22-43.43,3.07,5.32-69.05,42.48-67.75,44.74.7,1.2,71.14-48.16,74.21-42.85.33.57-57.15,44-55.79,46.32.66,1.14,68.67-46.93,71.83-41.47,3.37,5.84-53.21,41.86-50.66,46.26,1.84,3.2,66.91-44.09,69.27-40,1.78,3.08-55.61,40-53.16,44.2,2.89,5,67-39.89,67.49-39,2.27,3.93-54.53,40.55-53,43.15,3.17,5.48,62.6-43.61,65.83-38,.89,1.54-47.42,40.66-45,44.9.49.86,61.72-40.44,63.8-36.83,1.52,2.64-62.3,33.93-59.78,38.3.75,1.3,61.35-40.39,63.51-36.66,1.11,1.93-45.45,40-42.76,44.62,1.34,2.32,58.45-41.17,61.66-35.61.07.12-42.24,41.32-40.23,44.81,3.25,5.63,56.8-39.87,59.87-34.56,1.29,2.23-44.43,41-43.72,42.28.54.93,56-38.47,58.66-33.87.06.09-48,36.89-45.93,40.45,2.34,4.06,55.2-37.76,57.75-33.34,2.64,4.58-50.74,35.28-49.17,38,1.09,1.87,55.86-35.43,57.23-33,.82,1.41-46.75,37.73-45.66,39.63.88,1.51,53.65-37.49,56.47-32.6,2.33,4-44,39.57-43.42,40.56,1.18,2.05,54.87-33.61,55.71-32.17C992.24,145,946,179.49,948,183c1.53,2.65,54.32-33.11,55.08-31.8,1.15,2-37.65,43.92-37.56,44.08.43.74,52.13-35,54.27-31.34,2.78,4.82-40.09,40.69-38.53,43.38,2,3.43,52-34,53.7-31,1.54,2.68-40,42-39.68,42.54,2.34,4.06,52.3-32.44,53.27-30.76s-48.42,34.91-48.35,35c1.37,2.37,52.21-32.3,53.14-30.68.39.67-55.14,26.64-52.47,31.26,2.55,4.42,50.08-36,53.13-30.67.08.14-42.5,37.94-39.61,42.95s51.59-32.6,52.81-30.49S1022,241.21,1024.74,246c1.2,2.08,52.53-30.64,52.66-30.4,1,1.72-51.39,30.15-49.34,33.7,2,3.39,50-34.79,52.59-30.36,0,.05-41.47,40.37-39,44.6.09.16,50.39-33.85,52.45-30.28,1.45,2.5-47.44,35.31-46.45,37C1050,274.44,1099,238,1100.17,240c5.25,9.09-85.42,64-82.31,69.38,5,8.64,90.2-62.75,94.82-54.75,7,12.07-155.8,96.62-152.26,102.75,2.47,4.26,156.29-99.71,160.4-92.6C1132.63,285.2,905,376.81,915.45,394.92c7.26,12.57,208.93-126.85,211.63-122.18"/><path class="cls-2" d="M493.05,367.63c5.14,8.91,152.19-109.2,161.43-93.2,4.38,7.58-102.36,64.88-100,69,3.69,6.39,111.36-79,117.73-68,4.35,7.53-101.45,62.25-100.53,63.85,2.86,4.95,105.91-68.77,109.21-63.05,3.43,6-66.49,54.13-64.9,56.89.46.78,91.25-54.3,92-53.08,2.24,3.87-60.78,52.23-60.61,52.53s80.59-52,82.95-47.89c3,5.24-51.58,49-50.73,50.5.39.68,72.19-48.82,75.28-43.46,2.29,4-65.29,44.14-64.74,45.09,1.92,3.33,72.34-43.7,73.17-42.25,2.37,4.1-56.06,40.42-52.59,46.45,2.18,3.76,65.48-46.68,69.33-40,1.42,2.47-51.86,41.94-49.92,45.29.94,1.63,64.87-40.19,66.06-38.13.15.27-60.19,35.48-56.93,41.12,2,3.46,63.64-39.23,64.72-37.36,2.8,4.85-62.44,37.73-62.14,38.25,3.39,5.86,62.13-40.87,64.29-37.12,2.35,4.06-47,42.32-45.89,44.23,1.48,2.56,58.17-41.67,61.67-35.61,2.24,3.88-62,33.66-60.67,36.06.86,1.48,59.6-38.94,61.56-35.54,1.66,2.87-50,39.42-49,41.24,3.33,5.78,56.79-40,59.93-34.6.69,1.19-48,39.26-46.82,41.31,2.22,3.85,56.27-37.39,58.39-33.72,3,5.11-55.63,31.92-52.74,36.92,3,5.21,57.44-34,57.82-33.38,2.17,3.75-54.95,34.79-54.77,35.11.64,1.11,55.53-36.63,57.51-33.2,3,5.2-54.66,33.45-53.43,35.59,2.53,4.38,54.81-36.8,57-32.93,2.5,4.34-58.93,28.48-56,33.62,1.54,2.66,54.68-36.79,56.94-32.87,3.14,5.44-55.45,32-53.8,34.86s56.64-32.72,56.65-32.7c.75,1.3-56.28,31-54.48,34.07,1.64,2.85,54.08-36.68,56.44-32.59.66,1.15-48.35,36-46.47,39.24,3.17,5.5,52.93-36.58,55.53-32.06.89,1.53-41.74,41.48-41,42.83.55.94,54-32.06,54.4-31.4,1.26,2.19-40.46,42.45-39.86,43.49,1.29,2.23,52.09-33.3,53.49-30.88.85,1.47-42.62,39-39.92,43.71,2,3.49,50.23-35.47,53-30.62,2.56,4.43-43.73,38.56-40.75,43.73C878.89,450.6,1132.7,279,1135.68,284.19c.63,1.1-263.57,151.34-259,159.28,5.85,10.14,261.36-156.73,263.88-152.36,6.47,11.19-274.5,132-259.94,157.24,5.43,9.42,254.87-167.14,263.52-152.15,10.37,18-274,132.4-260.05,156.53,13.36,23.15,250.51-174,263.24-152,2.14,3.69-261.59,153.54-260.37,155.64,12.27,21.26,255.69-164.31,262.92-151.8,14.53,25.17-267.54,142.53-259.16,157.06,9.76,16.9,250.14-173.41,262.69-151.67C1167.79,334.86,891.84,461.51,898,472.2c14.47,25.05,253.66-166.49,262.34-151.46,5.16,8.95-260.67,153.35-255.24,162.74,4,6.88,253.27-166.79,262.18-151.37,3.68,6.38-266.5,144.34-254.11,165.79,8.68,15,257.58-159.69,262.33-151.45C1188.26,368.52,913.89,502,921.93,515.94c6.69,11.59,261.82-154,263.05-151.87,11.8,20.44-261.89,159.1-255.6,170,2.24,3.87,254.39-169.63,264.24-152.56,2,3.45-267.53,150.26-261.24,161.14,8.3,14.38,262.29-157.84,265.06-153,8,13.95-275.06,143.11-260.11,169,.44.75,252.26-179.14,266.77-154,.85,1.47-271.77,148.73-265.23,160.06.21.37,265-158.79,267.52-154.45,6.83,11.83-268.78,158.06-265.13,164.38,13.25,22.95,257.19-175.39,268.84-155.21,4.53,7.83-277.28,140.82-268.77,155.57,2.23,3.86,263.63-164.39,268.9-155.25,15.49,26.82-272.7,162.21-265.24,175.12,2.17,3.77,261-176.24,272-157.06,9.61,16.64-276.23,152.3-271.47,160.54,5.05,8.74,268.88-163.89,272.63-157.4,15.26,26.43-278.86,161-270.7,175.15,1,1.79,263.13-181.57,276-159.33,10.86,18.8-287.59,142.87-275.69,163.48,10.77,18.65,267.12-176.78,276.89-159.86,4.38,7.59-288.59,150.16-276.31,171.43,9,15.53,267.47-181.8,279.32-161.26,6.13,10.6-283.22,156.83-279.27,163.68,1.52,2.62,276.2-168,279.89-161.59,3.18,5.52-289.19,158.76-279.85,174.93,13.64,23.64,280.79-167.42,283.09-163.44,9.37,16.23-286.41,159.37-283.13,165,8.49,14.71,278-173.24,283.49-163.67,3.23,5.6-288.83,161-283.63,170,9.23,16,278.37-176.09,285-164.56,3.29,5.71-294.06,157.49-285.54,172.25,6.42,11.12,286.2-167.54,287.2-165.81,15.88,27.51-295.49,171.28-288.82,182.84,4,6.88,281.61-186.76,292.07-168.63C1244.8,523,937.94,670.21,945.72,683.68,957.45,704,1230,499.17,1238.83,514.45c.11.21-305.12,172.47-296.28,187.77,13.49,23.36,286.68-194.58,299.27-172.78,13.68,23.69-309.28,187.65-304.67,195.63,9.25,16,305.21-182.11,307.76-177.69,6.18,10.71-325.1,166.69-311.53,190.2,14.28,24.73,306.44-192.05,313-180.71.6,1-321.52,195.69-319.63,199,11.19,19.39,319.43-188.79,321.32-185.51,10.15,17.57-346.21,168.61-327.78,200.54s322-202,329-190C1266.37,610.5,891.54,766.75,907.85,795s336-209.69,342.8-197.91c19.23,33.3-377.28,201.63-362.19,227.77,8.82,15.28,354.11-225.48,363.22-209.7,3.94,6.82-417.29,213-396.9,248.35,20.09,34.8,381.54-257,397.42-229.45C1262.35,651.62,841.78,843,854,864.21c14.77,25.57,389.48-244.94,398.17-229.89.52.89-451,265.82-448.79,269.58,2.38,4.12,442.95-269.44,448.89-259.16"/><path class="cls-2" d="M358.48,885.87c2.13,3.7,53-31.7,53.5-30.89.2.34-51.09,32.21-49.5,35,2.57,4.45,52.28-32.85,53.43-30.85,1.91,3.3-52,31.53-50.81,33.52,1.87,3.25,52.8-32.06,53.48-30.88,1.66,2.87-46.29,36.29-44,40.27s52.06-34,53.75-31c1.49,2.59-53.14,31.32-52.74,32,3,5.18,51.73-34.67,53.81-31.07,2.31,4-48.55,35.47-47.7,36.92.22.4,52.53-34.16,54.19-31.29,2.71,4.7-52.41,32.06-51.44,33.75.63,1.1,52.41-34.5,54.24-31.32,2.64,4.57-48,36-46.92,37.85.18.3,52.19-36.14,54.79-31.64.6,1-48.56,35.19-46.67,38.47,1.08,1.87,53.21-35.7,55.37-32,.6,1-41.33,42.43-40.66,43.59,1.72,3,55.31-35.17,56.71-32.75,1.26,2.18-56.85,30-54.13,34.72,1.56,2.71,55.88-34.78,57-32.89,0,0-42.71,42.66-42.4,43.2,3.36,5.81,57-36.71,58.65-33.86,0,.06-48.17,38.73-46.43,41.74.67,1.17,57-40.39,60.24-34.78.87,1.5-43.68,43.12-42.64,44.93,2.77,4.8,62.45-36.87,62.8-36.26,1.15,2-50.87,40.91-49.61,43.09.6,1.05,63.12-40.76,65-37.52,2.77,4.8-46.79,45.61-46.62,45.91,1.36,2.34,66.07-44,68.59-39.6,2.83,4.9-53,43.88-51.55,46.33,2.69,4.65,72.2-42.22,72.43-41.82.73,1.27-51.38,47-50.22,49,3.17,5.5,76.24-49.32,78.54-45.34,1.08,1.88-70.87,47.22-70.67,47.56,3.75,6.5,77.32-53.4,81.12-46.83,2.4,4.17-78,45.51-76.55,48,3.73,6.46,80.78-51.26,82.79-47.79.47.82-73.59,48.31-72.48,50.23,3.17,5.49,84-54.86,86.78-50.1,2,3.48-85.49,46.2-82.73,51,.22.38,84.74-57.63,88.51-51.09.71,1.23-61.13,53.84-59.92,55.94,1.12,1.93,102.1-65.33,104.86-60.55,4.88,8.46-103.41,53.76-99.13,61.18.84,1.45,108.71-64.78,109.58-63.27,4.21,7.28-98.72,61.34-96.87,64.54,7.09,12.28,121.09-76.77,124.06-71.63s-122.12,64.46-117.74,72c5.93,10.28,131-85,135.05-78,2.26,3.92-131.91,73-128.81,78.38,3.64,6.3,156.75-92,157.41-90.87,2.46,4.27-122.33,87.9-120.53,91,8,13.85,565.16-397.89,596.16-344.2,32.09,55.58-595.89,295.71-569.13,342.06,20.39,35.32,535.8-384.65,568.4-328.17,10.12,17.52-557.78,289.37-538.19,323.3,30.3,52.49,525-331.25,537.21-310.16,10.56,18.3-492.73,239.93-465.51,287.08,2.07,3.58,67-41.79,68.35-39.46,1.45,2.51-45.25,23.56-43.22,27.07.52.91,18.78-13.06,19.74-11.4"/><path class="cls-2" d="M916.26,886.59c16,27.79,327.82-203,333.78-192.71,7.91,13.7-345.39,171.69-332.74,193.6,2.35,4.08,317.07-219,332.61-192,10,17.29-342.31,173.68-330.82,193.57,14.53,25.17,313.08-221.2,330.59-190.87,6,10.31-326.66,191.36-323.39,197,6.52,11.28,304.51-216.88,322.29-186.07,7.56,13.1-320.16,184.44-316.25,191.23,15.92,27.57,299.78-208.54,315.13-182,12.37,21.42-306.46,184.3-300.71,194.25.94,1.62,291.44-182.14,297.45-171.73,3.12,5.39-305.66,157.27-297.18,172,16.28,28.2,280.41-200.48,297.12-171.54,1.25,2.16-305.78,153.23-293.34,174.77,9.62,16.66,280.8-188.76,292.34-168.77C1259.4,775.47,944,900.34,955.39,920c7.07,12.25,285.76-166.33,286.35-165.32C1247.62,764.87,953,910.47,961.6,925.3c8.35,14.46,269.13-176.42,278.24-160.64C1240.06,765,955,911.09,964.78,928c.61,1.06,272.64-160.34,273.91-158.14,4.39,7.61-273.55,146.69-260.14,169.91,8.32,14.42,240.15-172.29,254.72-147C1238.94,802.57,972,925,982.56,943.22c2.15,3.73,244.48-151.46,249-143.73.6,1-250.7,137.91-245.76,146.46,8,13.8,240.26-148.11,244.33-141.06,6.69,11.58-239.52,140.45-234.13,149.79,8.76,15.16,224.06-140.54,228.9-132.16,10.21,17.69-225.72,132.49-223,137.2,9.92,17.18,217.56-130.24,219.57-126.76,12.17,21.08-224.52,114.17-215,130.67,1.13,2,206-133.49,212.28-122.56,5.81,10.06-207.06,124.1-203.71,129.89,7.23,12.54,194.18-120.93,198-114.31,8.36,14.47-191.55,118-189.47,121.61,1.43,2.47,173.31-122.84,183.17-105.76.89,1.54-181.8,105.79-180.5,108,.7,1.21,169.86-117.92,178.46-103,9.93,17.2-178.1,95-168.57,111.49,7,12.18,156.7-98.42,160.14-92.45,5.49,9.51-152.85,94.6-148.19,102.67.75,1.29,131.14-87.78,136.37-78.73.39.68-138.64,74.54-136.07,79,1.54,2.68,129.54-89.13,135.75-78.38,2,3.43-135.9,84-133.77,87.73,6.14,10.64,119.63-82.88,125.61-72.52,1.63,2.83-177.76,105-170.28,118,2.83,4.89,144.5-102,152.55-88.07.33.57-204.9,121.84-201.67,127.44.08.15,180.6-125.86,190-109.67,7.16,12.4-227.88,118.69-221.17,130.3,5.23,9.06,205.76-147.23,218.07-125.9"/><path class="cls-2" d="M442.47,328.68c1.22,2.11,21.18-13.6,21.77-12.58,4.77,8.27-104.87,68.71-99.89,77.34C368.92,401.36,553.48,278,556.2,282.67c4.67,8.09-203.05,96.9-193.84,112.85,10.38,18,189.42-125.44,196.39-113.38.84,1.46-205,104.12-198.44,115.54,11.4,19.75,196.66-123.39,200.92-116"/><path class="cls-2" d="M314.82,122.31c.18.31,26-17.25,26.95-15.56.71,1.23-122,70.19-115.54,81.46,8.82,15.28,208.6-140.16,217.14-125.36,5,8.71-269.8,176.55-269.1,177.77C175.64,243,508.86,33.28,515,43.9,531.48,72.47,152.86,209.51,172.2,243,184.49,264.29,502.48,16.39,518,43.34c5.86,10.16-387.93,227-379.38,241.86C156.17,315.51,566.62,27,571.45,35.33c14.38,24.89-465.81,263.94-455,282.72.17.29,142.37-102.09,151-87.17C275.28,244.42,93.37,328,101.85,342.64c3.33,5.77,124.86-85.14,130.51-75.35,4.15,7.18-148.42,94-144.31,101.16C93,377,227.82,280,231.18,285.81c4.91,8.51-163.29,96.88-155.87,109.73,6,10.32,162-110.69,169.46-97.83,7,12.05-176.06,108.38-174.86,110.46,5.3,9.18,172.54-120.09,181.4-104.73,2.82,4.87-186.52,110.92-185,113.55C68.12,420.13,249.63,296.54,256,307.5,266,324.91,51.57,436.56,56.18,444.55c8.89,15.39,202.34-145.4,214.72-124,1.84,3.2-219.69,135.75-219,136.9.77,1.34,225.31-132.16,226.21-130.6,7.9,13.68-238,145-233,153.78C47.48,484.75,281.83,322,291.35,338.49,302.39,357.6,34.69,488,40.6,498.22c10,17.34,259.5-153.4,261-150.72,10,17.31-271.77,148.8-263.75,162.71,10.38,18,267.75-161.93,270.93-156.42,4.31,7.48-280.55,154.66-273.22,167.35,16,27.77,272.83-173.68,279.83-161.56.44.76-286.64,178.71-283.79,183.66,8.58,14.85,280.43-201.17,297.43-171.72C341.4,392.86,23.74,529.59,31.65,543.29c13.78,23.88,294.4-177,297.46-171.74,3.25,5.62-310.78,154-298.12,176,11.16,19.33,289.2-193.7,300.77-173.65C344.52,396,24.85,540.54,30.54,550.41c.29.49,302.69-175.56,303-175,0,0-313.69,185.42-306.1,198.57,3.67,6.35,311.57-202,321.14-185.41C363.56,414.52,19.67,566.48,26.94,579.06c4.16,7.21,316.21-202.69,324.92-187.59,1.26,2.16-331.15,177.41-325,188.12,5.2,9,321.61-194.25,325.32-187.82.55,1-337.28,189.51-327,207.39,31.51,54.58,526.41-371.5,555.67-320.82C587.35,289.48,7.7,570.79,25.15,601c16.2,28.06,543.46-351.84,560-323.29C587.52,281.93.36,569.24,24.61,611.24c15,26,555-381.67,581.5-335.74,1,1.79-584.7,349.6-582.09,354.12C54.5,682.42,607.8,219.06,639.63,274.2,668.89,324.87,7,612.18,23.86,641.32,44.58,677.21,435.75,377.55,447,397,468.44,434.16,17.71,641.57,24,652.51c10.82,18.74,384.56-229.39,387.74-223.87,15,26.05-394.89,216.12-387.67,228.63,3.7,6.41,359.19-251.57,378.33-218.43C412.06,455.53,3.79,642.15,25,679c19.87,34.42,335.28-223.41,348.2-201,3.93,6.82-353.94,194.36-348,204.67,19.63,34,325.31-231.89,344.39-198.84C371.75,487.41,24,692.69,26.44,697,27.57,699,339,473.62,357.58,505.82,369,525.55,10.2,673,26.84,701.86c11.73,20.31,323.23-196.42,327.47-189.07,9.86,17.08-331,199.41-325.08,209.75,2.69,4.66,297.81-208.13,313.48-181,11,19-325.84,166-312.18,189.63C41.08,749.46,335.7,547.38,339,553.09,350.67,573.3,22.86,722.77,31.52,737.77c17.34,30,301.14-182.83,305-176.11C343.19,573.19,19.77,727.91,34.1,752.73c7.32,12.67,290.52-185,298-172.05,2.72,4.71-305.36,171.18-294.35,190.26C41.17,776.88,312,574.6,328.45,603.1c9.62,16.66-294,167-289,175.79,5.69,9.86,274.3-189.68,287.86-166.2,9,15.65-293.23,165.93-284,181.93,10.49,18.17,266.92-191,282.9-163.34,8.41,14.57-285.82,168.51-277.49,182.94C62.58,838.15,314.43,633.42,326.31,654,331,662.11,42.45,805.27,49.94,818.24,56.46,829.54,320,647.16,326.57,658.53c2.29,4-285.66,152.6-270.51,178.85,15.33,26.54,268.06-164.9,272.45-157.3,7.84,13.58-272,161-269.88,164.73,13.82,23.93,270.64-157.22,271.06-156.5,4.5,7.81-267.56,168.32-265.31,172.2,14.22,24.64,267.7-156.26,268.44-155,8.69,15-275.95,145.73-263.49,167.31C83.29,897,326.56,702.6,336,718.89c3.49,6.05-264.07,162.93-259.09,171.56C91,915,340.79,736.53,341.46,737.69,350.24,752.89,65,871,79,895.22,89.79,914,337.09,732.1,343.19,742.67,358.38,769,71.62,883.52,81.66,900.9c.87,1.51,260-158.53,263.62-152.2,6.4,11.08-265.67,150.12-259.48,160.84,4.51,7.8,248.28-177.43,263-151.87C358.81,775,77.47,895.85,87.91,913.93,98.66,932.55,337,738.53,350.69,762.21,362.78,783.15,81.52,903.35,90.35,918.64c1.28,2.23,256.92-161.29,262.53-151.58.6,1-266.78,145.59-254.08,167.58,1.57,2.72,261-152.86,262-151.24C366.83,793.91,97,931.76,103.69,943.34c3.84,6.65,261.23-152.15,261.8-151.15,4,7-263.41,148.38-261.14,152.31s258-157.77,261.81-151.16c5.28,9.16-270.91,135.39-257.83,158.06,9.77,16.93,246.76-177.19,261.8-151.15.38.67-261.24,152-260,154.12C112.32,958.16,367,794.61,372,803.22c8.32,14.41-273.27,131.19-260.31,153.64,11.71,20.28,247.81-175.57,261.88-151.19,11,19-264.15,146-252.07,166.87,2.64,4.56,248.06-176.35,262.41-151.5,2.21,3.83-270.14,137.28-258.25,157.87,9.1,15.78,249.19-175.11,262.72-151.68,4.72,8.18-274.61,130.77-261,154.31,13.09,22.68,251.31-172,263-151.82,12.57,21.77-266,143.82-253.41,165.56C137.63,996.6,395.06,832.6,401,842.81c6.93,12-266,148.34-261.34,156.37s253.91-171.06,264.5-152.71c2.93,5.07-256.09,163.72-255.48,164.77,6.58,11.4,189.58-119.65,194-112,.95,1.66-191.74,112.06-185.54,122.79,1.52,2.64,129.73-79.5,131.72-76,4.31,7.47-127.37,78.07-121,89.12,1.64,2.83,54.09-33.56,55.1-31.81,1.13,2-46.56,41.12-45.51,42.94,1.41,2.43,50.6-33.27,52.36-30.23,2,3.49-51.88,29-49,33.89,2.4,4.18,50.13-34.12,52.37-30.24,1.43,2.47-44.7,38.51-44.42,39,2.34,4,50.3-34.5,52.67-30.4,2,3.46-53.07,28.67-51.16,32,.29.5,51.76-32,52.67-30.41,2.15,3.72-51.7,30.18-49.95,33.21,1,1.73,50.47-34.31,52.71-30.43.43.75-44.84,36.62-42.15,41.27.31.55,51.62-33.09,53-30.63,2.32,4-49.71,33.74-49.57,34,2.73,4.74,50.82-34.74,53.16-30.7,1.79,3.11-52.38,30.29-50.85,32.93.58,1,50.49-35.49,53.24-30.73s-41.36,40.42-39.5,43.64c2.52,4.37,51.71-34.51,53.72-31,2.25,3.9-47.54,35.22-45.83,38.19S283,1064.91,285,1068.29c.51.89-49.45,35.07-49.33,35.29,2.28,4,53.37-32.84,54.25-31.32.2.35-48.53,35.09-47.29,37.23s53.86-32.6,54.51-31.47c1.59,2.75-53.4,31-51.81,33.77,2.83,4.9,54-32.74,54.7-31.58,2.69,4.66-55.06,28.49-52,33.78,2.43,4.21,54.66-31.93,54.82-31.65.83,1.45-56.36,28.25-54,32.29,1,1.72,52.63-35.51,54.85-31.67.89,1.55-50.51,34.48-49.82,35.67,2,3.4,53.07-35.07,55-31.75,3.06,5.3-50.58,34.77-50.05,35.69,1.28,2.21,52.25-37.28,55.33-32,.23.39-41.65,40.08-39.41,44,.43.75,55.39-33.77,56.17-32.43,2,3.49-51.92,35-51.39,35.89,0,.06,55.9-33.53,56.44-32.59,2,3.42-55.63,31.57-54.09,34.23,1,1.78,53.37-38.1,56.53-32.64.32.57-47.5,36.85-45.48,40.34,3,5.25,55.16-36.7,57.26-33.06,2.73,4.73-47.14,38.36-45.93,40.46,2,3.48,57.61-33.9,57.89-33.42,2.25,3.91-60.29,28.39-57.09,33.94.64,1.11,55.67-37.41,57.95-33.46,2.11,3.65-48.87,38.37-48.16,39.61,2.81,4.85,57.18-36.25,58.59-33.82,3,5.27-46.95,39.64-45.88,41.48,1.77,3.08,58-37.14,59.57-34.4.4.7-57.43,35.31-57.17,35.75,1.14,2,59.48-34.82,59.69-34.46.34.58-53.85,35.55-52,38.79,2.21,3.82,60.11-35,60.26-34.78,2.41,4.18-57.76,35.64-57.29,36.45,1.55,2.69,57.41-40.34,60.52-35,2.3,4-59.16,32.38-56.33,37.28,1.39,2.4,59.78-37.08,60.89-35.15.88,1.52-50.19,37.44-47.49,42.12,1.38,2.38,61.72-36.18,62-35.77,1,1.74-63,31.13-59.66,37,1.67,2.9,60.51-38.78,62.18-35.9.6,1-54.28,37.69-52.64,40.53,3.41,5.91,61.05-39.6,62.93-36.34,2.63,4.55-54.79,39.94-54.55,40.35.46.81,62.89-38.34,63.77-36.81,3.34,5.79-58.23,36.41-56,40.29,3.54,6.13,62.49-40.6,64.45-37.21,2.71,4.7-46.51,41.67-44.11,45.83.53.9,66.17-39.06,66.54-38.42,1.38,2.39-59.95,39.65-58.89,41.49,2.14,3.71,66.84-39.81,67.37-38.9,1.26,2.18-60.29,40.86-59.78,41.75,2.64,4.56,67-41.51,68.24-39.4,2,3.54-46.77,42.5-43.62,47.94,3.49,6.06,67.29-47.87,71.2-41.1,2.11,3.65-53.29,43.85-51.38,47.16,1.05,1.83,72.61-44.81,73.86-42.64.65,1.12-64.6,45-64.43,45.32,4.17,7.23,71.46-50.46,75.45-43.55.43.74-57.53,46.38-56.37,48.38,3.56,6.18,76.4-49,78.52-45.33,1.9,3.3-51.73,47.09-49.23,51.42,2.84,4.92,81.07-53.43,83.94-48.46,1.44,2.49-77.69,48.37-76.87,49.78,3.55,6.16,81.14-56.63,85.37-49.3,2,3.43-69.29,48.8-67.38,52.11,1.28,2.21,87.13-55.93,89.56-51.71.07.12-68.31,48.11-64.42,54.83.15.27,95-58.43,96.54-55.74,2.4,4.15-83.17,49-78.4,57.27,4.46,7.73,100.32-62.84,102.45-59.15s-101.32,52.93-97.53,59.5c.92,1.59,103.93-61.16,104.43-60.29,4.32,7.48-99.08,54.55-95.51,60.74,2.75,4.77,105.45-66.17,107.74-62.2,6,10.4-110,57.48-107.24,62.23,5.9,10.23,106.89-64.21,108-62.34.76,1.32-108.06,57.78-105.35,62.47.46.81,105.12-70.1,109.2-63,5.57,9.65-102.16,55.62-97.63,63.48,5.18,9,109.12-75.73,114.63-66.18.76,1.32-79,65.65-78.73,66.14,4.85,8.4,135.68-86.25,139.1-80.32,1.39,2.41-142.09,72.37-137.51,80.29,5.62,9.74,138.95-84.25,140.69-81.23.94,1.62-141.28,69.72-134.8,80.94,6.86,11.88,144.74-87.72,146.54-84.6,3.41,5.89-133.31,73.35-127.44,83.51,0,.07,173-111.42,178-102.75,1.18,2.06-145.8,87.11-139.12,98.7.79,1.36,384.93-261.92,402.12-232.16,13.91,24.09-356.85,203.82-346.44,221.86,11.31,19.58,293.45-206.47,309.49-178.69,6.53,11.31-278.7,160-273.46,169.11,12.77,22.12,235.4-162.8,247.05-142.63.6,1-133.2,90.33-130.74,94.59,1.28,2.21,26.65-19.14,28.28-16.33"/><path class="cls-1" d="M948.49,641.44C948.58,813.08,809.1,952,637,951.54S325.7,811.72,326.09,640.46c.39-169.66,139.42-307.66,310.32-308C809.37,332.1,948.4,469.75,948.49,641.44Z"/><path class="cls-3" d="M915.37,887.19s.86-.61.91-.53-8.7,7.36-8.4,7.88c.13.23,10-7,10.52-6.07.86,1.49-44.49,34.82-43.88,35.87,3,5.11,49.49-32.6,51.24-29.58,2,3.45-97.48,59.49-96.24,61.64,1.09,1.88,96.84-64.31,100.48-58"/><path class="cls-3" d="M357.32,886.6a12.3,12.3,0,0,0,1.17-.68c2.65,4.59-77.21,58.43-74,64,2.54,4.4,85.62-53.37,87.32-50.42,1.4,2.42-121,71.68-118,77,1.08,1.87,121.71-75,123.76-71.46.84,1.46-139,72.13-134.2,80.52,6.45,11.17,135.87-79.15,136.18-78.62,7.59,13.15-159,95.88-154.45,103.81,1.58,2.73,155.2-110.67,164.32-94.87,3.43,5.94-152.45,107.07-151.57,108.6,9.38,16.24,157.41-111.65,166.4-96.07,4.8,8.31-159.83,99.73-155.65,107,9.43,16.33,164.48-103.86,168.34-97.19,7.54,13.08-166.16,93.85-159,106.21,7.49,13,169.67-99.16,170.19-98.26,9.41,16.29-174,90.66-168.93,99.41,6.92,12,163.22-110.81,170.4-98.38,5.92,10.26-164,98.26-156.85,110.62,9.95,17.24,163.8-116.43,173.27-100,6.93,12-171.59,94.71-163.83,108.16,7.62,13.19,166.5-116.88,175.49-101.32,9.35,16.21-171.64,99-165.75,109.19,7.05,12.21,170-116.44,177.9-102.71,6.78,11.74-184,88.43-173.84,106,6.76,11.71,173.91-112.35,179.09-103.39,6.06,10.5-179.19,99.11-174.88,106.58,3.12,5.4,178.35-107.21,180.19-104,.13.23-183.52,92.41-174.19,108.57,2.42,4.19,179.88-108.58,181.92-105,.38.65-175.6,106.54-172.57,111.79,7.82,13.55,184.47-107.11,184.74-106.66,7,12.09-179.39,104.32-173.5,114.51,5,8.74,178.73-126,188.62-108.9,6.31,10.93-176.62,113.15-173.3,118.89,10.11,17.52,186.81-125.71,194.54-112.32,3.88,6.73-182.89,112.73-177.07,122.81s201.17-118.67,202.27-116.78c1.43,2.48-187.11,118.76-181.81,127.95,4.82,8.34,211.34-126,213.08-123,3.58,6.19-214.2,115-208.14,125.53,7.11,12.32,207.06-140.16,216-124.69,6.12,10.6-214.16,124.65-213.36,126,6.09,10.54,208.25-141.82,217.6-125.63,1,1.72-218.27,115.72-210.49,129.19,1.91,3.31,214.21-142.56,222.38-128.4,1.87,3.23-213.24,131.6-212.41,133C413.24,1157.89,624,993,634.14,1010.61c.51.88-215.64,131.58-210.29,140.85,6.74,11.69,241.11-150.44,246-142,10.61,18.37-225.79,149.92-225.77,150,7.77,13.46,259.11-177.46,271.18-156.56,14.57,25.24-278.26,142.68-270,157,3.95,6.83,262.15-177.1,273.3-157.79,5.67,9.81-252.2,162.06-250.09,165.7C491.66,1208,926.26,890.13,932,900.13c19.59,33.92-469.76,234.85-448.11,272.36,1.46,2.52,442.66-290.15,457.63-264.22,24.92,43.16-457.27,237-438.66,269.28,23.8,41.23,430.22-293.7,449.84-259.72,19.21,33.27-438.69,251.06-431.21,264,8.76,15.17,436.41-264.22,441.72-255,13.61,23.58-438,227.51-419.75,259.21,6,10.4,419.2-270.49,431.52-249.14,7.63,13.21-438.47,215.78-417.95,251.32.52.91,419.82-254.22,424.94-245.35,6.24,10.81-414.61,222.89-399.88,248.42,6.51,11.27,389-278.06,412.13-237.94,12,20.71-384.82,227-377,240.42,2.17,3.77,383.3-243.52,392.92-226.85,11,19.06-392.75,224.51-391.38,226.89,22.58,39.11,375.85-254.37,392-226.34,11.68,20.23-389.43,212.61-381.37,226.58,20.73,35.9,384.64-224.82,385.84-222.76,7.23,12.53-357,201.38-345.14,222,19.16,33.19,351.48-224.91,361-208.43,2.11,3.65-324.76,194.87-319.17,204.56,14.78,25.6,322.2-211.74,333.34-192.46S726.83,1157.2,742.53,1184.4c4.26,7.38,293.93-210.34,311.53-179.86.67,1.17-297.1,176.23-296.74,176.85,10.84,18.76,273.31-188.56,286.64-165.48,4.6,8-245.05,143.69-239.62,153.1,1.18,2,203.87-120.66,205.15-118.44,2.82,4.88-109.06,74.94-107.76,77.19.22.38,23.35-13.89,23.53-13.59"/><path class="cls-3" d="M464.19,316c17.07,29.55,339.72-208.92,345.25-199.33,5.88,10.18-330.06,172.5-321.29,187.7,2.76,4.78,315.5-201.17,323.73-186.91,8.56,14.81-250,161.5-248.76,163.74,3.69,6.39,267.87-161,270.61-156.24,9,15.53-239.88,151.28-239.69,151.6,5.84,10.12,240.34-169.09,253.47-146.35,2.29,4-243.83,123-231.43,144.52,7.49,13,237.2-149.21,242.51-140,3.75,6.48-205.8,137.27-204.47,139.57,5.5,9.52,220.31-139,225.43-130.15.55.94-227.66,111-216.3,130.61,6.79,11.78,221-129.14,221.7-128,3.85,6.67-193.63,124.37-189.71,131.16.64,1.1,199.42-138.57,209.57-121,6.52,11.3-196.74,111.5-189.3,124.38,4.38,7.59,192-135.21,202.54-116.94,11.15,19.3-204.18,111.1-200.56,117.37,2,3.51,190.53-136.37,201.94-116.59C930,183.42,740.74,283,743.75,288.23c5.64,9.76,187.71-122.65,193.89-111.94.41.69-182.12,107.16-176.11,117.57,8.53,14.77,179.82-125,189-109.11.06.1-192.22,98.87-185.58,110.35,6.91,12,187.28-110,188.09-108.59,1,1.75-181.21,110.72-180.92,111.22,6.95,12,182.72-113.52,186.2-107.5,2.69,4.66-171.15,106-165.16,116.43,7.9,13.68,173.4-118.15,181.21-104.62,1.73,3-168.68,109.5-167.69,111.22,7.87,13.63,177.09-104.88,178.23-102.9,4.08,7.07-178.13,92.36-169.37,107.54,4.58,7.94,171.25-110.77,176.4-101.84,1.76,3.05-176.22,99.08-173.74,103.38,7.64,13.24,168.48-114.34,175.88-101.53.64,1.1-163.3,106.52-161.08,110.35,3,5.12,168.43-107.93,173.06-99.91,2.24,3.88-171,90.86-161.43,107.5.82,1.42,165.74-107.69,170.93-98.69,4.94,8.55-173.12,89.4-165.62,102.38,2.72,4.72,169.29-99.44,170-98.16,2.3,4-164.69,97-159.63,105.78,5.77,10,158.94-113.39,168.3-97.17,4,7-159.51,98-152.91,109.4,2.37,4.09,156.61-111.78,165.86-95.76,5.05,8.74-173,83-165.38,96.15,6.72,11.63,164.49-98,165.79-95.72,7.25,12.56-162.6,92.11-155.2,104.93,1.37,2.36,155.54-109.76,164.18-94.79,7.86,13.6-157.49,99.87-156.19,102.12,2.69,4.67,134.27-87.14,138.44-79.93,3,5.23-129.74,86.79-127.63,90.45,3,5.2,59.33-42.08,62.72-36.21.31.54-63.43,34.51-62.07,36.88,1.28,2.21,55.89-37.19,58-33.5,2,3.51-53.14,36.37-50.12,41.59,0,0,1.23-.84,1.29-.74"/><path class="cls-3" d="M346.82,170.83c1.48,2.55,25-15.94,25.66-14.82,4.95,8.58-124.54,81.85-120,89.68,5.9,10.22,221.57-155.2,233.38-134.75,7.31,12.66-265.84,160.88-261,169.21,7.05,12.22,297.66-208.32,313.45-181,7,12.17-314.95,173.28-307.5,186.18.61,1.05,322.15-199.51,328-189.38,1.75,3-334.17,168.07-315.61,200.22C252.29,312,585.5,72.42,596.81,92c4.57,7.91-350,204.78-347,210,8.55,14.8,361.06-218.82,365.55-211,7.24,12.54-365.73,209.52-364.13,212.3,5.9,10.21,358.56-228.58,367.9-212.41C630.33,110.26,247.57,287.3,262.47,313.1,275.06,334.91,632.24,63.63,647.82,90.62c7.72,13.36-394,201.49-378.37,228.59,10.61,18.38,389-238.46,395-228,2.62,4.56-399.5,212.3-385.74,236.14,3.92,6.78,403.92-239.64,406.71-234.81,14,24.28-392.13,246.68-391.08,248.5C296,343.83,711,83.42,718.35,96.18c7.56,13.09-420.32,241.29-412.4,255,9,15.56,426.62-266.32,435.29-251.31,9.53,16.51-442.91,228-423.52,261.62,15.2,26.33,433.82-277.41,445.49-257.2C785.07,142.15,326.53,368.42,327.44,370c11.69,20.25,439.58-284.85,453-261.55C790.73,126.21,326.59,356,342.06,382.8c6.84,11.84,446.77-296,463.23-267.45,2.79,4.83-467.35,258-460.58,269.77,1.14,2,92.63-61.6,96.15-55.51,3,5.14-82.55,66.4-81.37,68.45.05.08.76-.54.81-.46"/></svg>