<svg id="Layer_2" data-name="Layer 2" xmlns="http://www.w3.org/2000/svg" viewBox="0 0 1280 1280"><defs><style>.cls-1,.cls-2,.cls-3,.cls-4{fill:none;stroke-linecap:round;stroke-linejoin:round;}.cls-1{stroke:red;}.cls-2{stroke:#ff0;}.cls-3{stroke:blue;}.cls-4{stroke:lime;}</style></defs><title>variation</title><path class="cls-1" d="M184.66,112.81c.27.47,16.62-10.37,17-9.79.95,1.64-18.17,8.79-17.41,10.1.14.26,17.6-11.71,18.27-10.55.21.36-43.79,29.07-43.54,29.5,3.42,5.93,70.18-48.39,73.59-42.49,6.78,11.76-112,77.32-109.57,81.6S276.69,65.78,283.9,78.26C290.37,89.47,92.27,188.72,102.26,206,103.81,208.71,323,75.32,324.41,77.76,333.33,93.2,91,190.37,101.28,208.18,111.37,225.66,317.32,61.45,326.85,78,332.24,87.29,79,217.21,90.19,236.66,96,246.73,346.22,64,357,82.62,366.32,98.77,86.74,240,88.41,242.92c4.63,8,265.1-176.06,275.06-158.8,14.41,24.95-285,172.6-280.08,181.12,4.52,7.83,292.07-191.43,301.94-174.32C387.43,94.55,66.11,246.39,82.06,274,93.19,293.3,376.73,65,393.58,94.17c5.34,9.25-322.3,169.12-312.35,186.36,9.71,16.81,308.9-200,318.29-183.76,7.39,12.8-330.79,172.54-319,193,5.22,9,312.51-214.88,327.43-189,5.43,9.39-334.51,181.66-327.67,193.51,14.5,25.11,321.07-209.69,331.6-191.45,3.08,5.34-335,197.55-331.8,203.14,1.7,2.94,329.33-219.46,342-197.46C423,110.06,67.57,289.76,80.25,311.73,82.13,315,416.59,93.17,427.14,111.45c19.49,33.76-350.28,208.3-345.85,216C85.64,335,422.53,89.67,440.17,120.23c3.23,5.6-358.31,213.69-358,214.15,17.26,29.9,347.54-237.76,363.61-209.93,5.43,9.42-377.65,193.65-361.9,220.94C88.25,353,448.27,120.93,454.36,131.47c9.35,16.2-368.51,228.68-366.18,232.72,2.13,3.69,374.7-229.37,380.35-219.59,4.2,7.28-383.17,218.14-378.36,226.48,2.62,4.54,362.46-257.35,383.27-221.29,13.37,23.15-401.07,193.38-381.07,228,17.86,30.94,380.16-232.56,385.82-222.76C494,182.36,83.64,366.39,96.28,388.29c2.31,4,371.72-254.66,389.06-224.62,15.38,26.64-392,220.14-388.27,226.64,11.21,19.42,388.61-226.59,389.58-224.92,19.16,33.2-397.65,213.34-385,235.26,12.13,21,389.09-230.68,391.7-226.15,9.92,17.19-407.12,200.34-388.8,232.08,3.66,6.34,390.36-230.31,392.5-226.6C503.94,191.91,100.13,399.16,106,409.26c19.3,33.43,379.58-249.61,392.77-226.77,12.2,21.13-413.7,190.65-392,228.18,7.17,12.41,382-245.6,392.85-226.81,7.82,13.54-405.9,204.59-390.66,231C115.9,427,494.82,175.51,502,187.9c6.23,10.8-406,204.21-388,235.42,13.41,23.24,384.64-241.13,392.89-226.84,17.57,30.43-393.64,225.26-390.71,230.34,11,19,377.58-252.76,392.63-226.69,10.54,18.25-397.53,218.13-392.34,227.12.24.41,383-243.22,392.58-226.65,1.9,3.28-398,215.7-386.51,235.61,5.78,10,373.89-255.86,391.21-225.87C528.56,236.06,123,434,129.88,445.94c20.29,35.14,368.48-259.15,388.57-224.34,18,31.17-399,203.89-384.16,229.54,9.77,16.91,368.12-255.22,386.61-223.2,14.66,25.39-381.72,228.81-381.71,228.82,12.27,21.25,364.43-255.66,384-221.71,21.41,37.09-399,193.18-380.3,225.65,15.8,27.37,376.22-230.42,381.94-220.51,11.71,20.29-381.28,219.63-379,223.67C165,497,507,211.49,526,244.43c3.4,5.88-388.1,205.25-379.65,219.87C151,472.35,509.59,216.36,526.14,245c17.05,29.53-389.4,198.94-375,223.84,1.64,2.85,364.41-238.78,376.7-217.49,4.5,7.79-373.88,211-363.35,229.26,11,19.08,362.71-218.67,366.72-211.73,16,27.68-356,215-351.41,223,13.48,23.35,338.56-230.08,353.55-204.12C548,313.24,174.42,476.22,185.8,495.92c10.68,18.51,341.93-211.24,347.91-200.87,19.68,34.08-347.89,187.22-336,207.9,9.89,17.12,329.62-205.27,336.1-194C536,312.66,201.09,492.5,211,509.63c7.58,13.13,307.58-211.08,322.09-186,1.72,3-334.81,162-320.57,186.65.6,1.05,309.89-203.28,320.44-185,18,31.25-324.6,169.54-314,187.93,14.18,24.57,309-188,313.17-180.81,6,10.33-312,159.06-295.73,187.28,2.09,3.62,285.68-181.23,292.74-169,.16.29-288.09,163.2-283,171.94,7,12.08,274.46-173,280.78-162.11,2.4,4.16-267,145-253.72,167.92,13.38,23.17,240.75-149.09,245.12-141.53,9.41,16.3-248.59,130.65-242.09,141.91.24.42,239.76-141.29,241-139.15,12.3,21.3-221.32,137-219,141.07,4.4,7.63,202.43-133.44,209.6-121,10.47,18.12-188.18,113.61-184.16,120.57,3.65,6.33,168-104,171-98.75.39.68-154.7,88.35-150.12,96.28,5.78,10,129.87-92.36,137.39-79.32.73,1.25-71.32,53.42-69.56,56.47.27.48,16.69-10.25,17-9.79"/><path class="cls-2" d="M763,94.32s.49-.31.5-.29c.27.47-1,10.06-.5,11,1.08,1.87,18.62-11.75,19.05-11,1.13,2-19.62,29-19.05,29.94,2.82,4.87,49-34.88,51.86-29.94,2.72,4.71-54.53,47.82-51.86,52.45C765.61,151,851.32,89.6,853.88,94c0,0-93.1,70.89-90.85,74.79,1.73,3,124-84.41,129.53-74.79C900,106.9,758.19,169,763,177.37c1.14,2,138.39-93.7,144.37-83.35,1.18,2-152.88,77.48-144.37,92.21C767,193.07,917.53,85,922.75,94,923.44,95.21,759,187.49,763,194.52,771.61,209.37,931.88,85,937.1,94,943.71,105.46,755.73,197.15,763,209.8,773.11,227.25,953.7,76.92,963.57,94c12,20.75-204.28,125.13-200.54,131.62C767.59,233.54,977.88,71.27,991,94c9.14,15.83-238.6,115-228,133.4C767.5,235.15,989.88,86.74,994.08,94,996.31,97.88,754.25,221.93,763,237.14c8.68,15,247.57-143.71,247.9-143.13C1016.1,103,751.79,226.35,763,245.81,767,252.74,1021.52,86.31,1026,94,1038.86,116.35,752,227.19,763,246.23c4.63,8,259.23-159.89,263.66-152.22C1035.33,109,749.94,245.2,763,267.87c7.68,13.3,285.81-200.4,301.14-173.86,9.66,16.73-315.62,162.85-301.14,187.93.07.12,313.49-208.76,325.52-187.93,5.83,10.1-337.93,166.87-325.52,188.36,5.72,9.91,322.4-195.06,326.26-188.36,14,24.3-344.17,164.84-326.26,195.86,3.45,6,321.81-226,339.24-195.86,4.4,7.61-355.17,190-339.24,217.64C779.24,339.73,1136.15,87.33,1140,94c15.15,26.24-391.19,205.82-377,230.45C766.26,330,1143.15,61.05,1162.17,94c21.6,37.4-406.91,225.08-399.14,238.54,10.49,18.18,397.9-265,413.17-238.54C1196.4,129,756,342.87,763,355c2.44,4.22,413.22-254.08,419.94-242.45C1202.7,146.69,755.47,351.35,763,364.45,776.38,387.57,1163.18,87.71,1183,122,1206.8,163.27,758.59,368.85,763,376.55,772.62,393.16,1163.31,100,1183,134.09,1195.4,155.62,754.19,375,763,390.34,780.6,420.77,1175.42,134.8,1183,147.89,1199.28,176.13,744.63,370.65,763,402.52,778.54,429.38,1164.69,128.4,1183,160.07c4.93,8.54-432,234.26-419.94,255.11,20,34.64,408.33-262.57,420-242.45C1195.8,194.93,760,414.24,763,419.57c15.87,27.48,407.83-263.45,420-242.46,14.43,25-422.33,241-419.95,245.16,6.22,10.78,406-266.54,420-242.46C1189.29,190.74,747.4,402.59,763,429.67c17.29,29.94,404.09-269.92,420-242.46,22.81,39.52-423.4,244.36-419.95,250.33,11,19.13,403.25-271.37,420-242.45,20.43,35.38-438.1,222.16-419.95,253.6,14.17,24.55,396.39-283.27,420-242.46,18.46,32-432,222.12-419.95,243.06,10.34,17.9,398.39-279.81,420-242.46C1193.84,225.65,748,430,763,456c1.1,1.9,406.77-265.29,420-242.46,23.55,40.8-429.46,235.17-419.95,251.64,14.15,24.51,418.79-244.46,420-242.46,12.52,21.7-426.8,249.58-419.95,261.44,18.46,32,402.08-273.41,420-242.46C1200.76,272.44,738.91,446.77,763,488.56c21.11,36.57,405.77-267,420-242.46,16.85,29.18-438,214.78-419.95,246.11,16,27.65,412.13-256,420-242.46,4.48,7.76-444.28,221.93-419.95,264.08,16,27.62,409-261.44,420-242.46,4,6.88-408.46,228.4-400.25,242.63C803.81,550.51,1173.6,266.66,1183,282.91c9.83,17-391.8,211.1-380.27,231.09C814.64,534.66,1179.5,288.42,1183,294.45c.19.32-377.42,191.23-361.07,219.55,9.16,15.87,348-231.1,361.08-208.47C1201.24,337.14,842.82,511.87,844.05,514c7.27,12.59,332.71-206.47,338.94-195.68,15.15,26.24-321.37,191.4-318.9,195.68,1.21,2.09,301.85-213.64,318.9-184.11C1184.19,332,891.32,506.76,895.5,514c13.37,23.16,272-192.89,287.49-166,1.65,2.86-269.14,159.53-265.42,166,4.87,8.44,258.73-164.83,265.42-153.24,3,5.25-237.31,137-227.91,153.24,1.79,3.09,223.19-139.77,227.91-131.59,6.55,11.34-216,115-206.37,131.58,10.56,18.3,205.87-120,206.37-119.15C1188.84,405,980.59,495.38,991.33,514c10.46,18.13,187.84-117.27,191.66-110.65,4.61,8-166.64,101.05-161.1,110.65.73,1.26,158.25-98,161.1-93,1.81,3.13-161.53,79.53-153.75,93,2.17,3.77,145.49-103.09,153.75-88.77,1,1.79-130.58,88.2-130.25,88.77,7.36,12.75,129.2-77,130.25-75.2,2.81,4.85-112.29,67.42-107.8,75.2.2.35,104.08-68.7,107.81-62.24,2.87,5-97,53.82-92.09,62.24,1.85,3.19,91.5-54.18,92.09-53.17.84,1.46-59.46,50.18-57.74,53.16,1.32,2.29,56.09-36.19,57.74-33.33.73,1.27-30.5,31.94-29.7,33.33s29.48-17.52,29.7-17.14c.36.62-27.21,15.4-26.2,17.14.77,1.33,26.11-15.28,26.2-15.13.41.72-11.54,14.24-11,15.13s10.57-7.16,11-6.37c0,.1-.66,6.09-.5,6.37,0,0,.49-.3.5-.29"/><path class="cls-3" d="M63.92,896.14s.46-.32.48-.28c.68,1.19,12.75,12.94,13,13.47.45.78,33.55-24.07,35.58-20.54.29.49-35.26,19.83-33.91,22.16,1.67,2.9,38.44-25.55,39.9-23,1.07,1.87-35.19,26.61-33.84,28.94,1.06,1.84,55.21-32.82,55.62-32.11.07.13-57.49,28.72-55.41,32.32,0,.08,54.14-35.94,56.16-32.43,1.63,2.82-53,33.31-50.07,38.36,3.3,5.72,70.9-43.34,71.94-41.54,2.81,4.87-71.88,40.43-70.33,43.12s75.34-45.36,76.14-44c3.28,5.67-75.85,42.1-73,47,3.94,6.84,81.76-52.86,84.22-48.62,3.47,6-72.38,59.08-70.95,61.56,3,5.14,116.12-72.82,118.62-68.49,1.31,2.27-116.73,70.24-116.61,70.45,1.73,3,225-159.84,237.93-137.37C354.7,814.29,119.13,946.3,124,954.66c1.83,3.17,224-149.85,232.9-134.46C366.37,836.69,129.43,955,136,966.41c7.38,12.78,226.06-135,228-131.65,2.61,4.53-221.36,135.54-217.91,141.52C158.76,998.16,359.09,828,370.07,847c4.87,8.43-215,137.49-214.35,138.64,9.86,17.08,210.66-143.36,220.07-127.06C387,878.05,152.36,974.67,162.5,992.24c2.94,5.08,217.24-125.63,217.33-125.48,1.81,3.12-220.21,117.4-213.26,129.44,7.11,12.32,207.74-138.7,215.86-124.63C389.1,883.13,163.78,990,168.43,998c9.83,17,214.59-131.76,218-125.86,11.32,19.62-207.06,133.59-203.19,140.3,12.34,21.38,229.7-144.87,235-135.68,4.45,7.7-248.84,128.06-235.26,151.58C186.28,1034.06,431.42,865,440,879.94c14.13,24.49-260.58,149.47-258,153.93,10.77,18.65,264-154.57,264.89-152.93,6,10.33-269.73,176.87-269.16,177.85,9.9,17.15,289.9-191.23,300.23-173.34,10.57,18.31-306.72,190.52-304,195.26,7.8,13.51,324.88-202.44,331.32-191.28,6,10.43-336.65,208.17-334.77,211.43C181.76,1120.27,514.78,866,530.44,893.08,551,928.64,157.87,1082.31,170.1,1103.5c4.7,8.14,345.3-241.69,363.63-210,11.34,19.65-369.07,205.27-364.26,213.6,11.88,20.57,362.21-224.38,368.82-212.93,14.61,25.3-383.6,218.88-373,237.26,8.63,14.94,338.71-225.36,351.61-203,12.36,21.39-361,214.23-355.24,224.21C175.15,1176,457.29,955.35,468.84,975.34c3.64,6.31-324.9,155.88-308.39,184.46,7,12.17,289.68-173.22,292.27-168.74,10.61,18.38-308.32,144.29-292.72,171.32,4.11,7.1,279.8-177.9,286.88-165.63.93,1.61-300.91,142.13-287,166.26.77,1.34,273.23-186.22,285.56-164.87.35.61-214,127.48-206.52,140.53,9.42,16.32,184.61-123.59,192-110.83,3.22,5.58-114.73,78.77-113.79,80.4,4.67,8.09,115.3-68.38,116.08-67,6,10.44-96.29,77-95.93,77.6,1.19,2.07,98.35-59.21,99.4-57.39,1.69,2.93-83.31,60.81-79.12,68,1,1.68,81.62-49.41,82.61-47.69,2.19,3.79-67.79,52.67-65.45,56.71.77,1.34,64.77-45.78,68.41-39.49,1,1.78-63,39.76-60.81,43.49.42.73,58.85-41.51,62.11-35.86,1.12,1.93-57.07,35.34-54.44,39.89,1,1.75,54.77-33.92,55.76-32.19s-53.5,29.7-50.46,35c1.45,2.51,49.24-33.37,51.38-29.66,1.59,2.75-41.8,31.87-39.46,35.93,1.68,2.9,40.7-25.36,41.51-24,1.82,3.16-28.78,30.51-28.67,30.71,1.21,2.09,29.29-20.58,30.88-17.82,1.13,2-19.12,22.18-17.6,24.8.57,1,19.54-12.08,19.88-11.48.83,1.43-13.2,14.37-12.68,15.27.06.09,13.36-9,13.92-8,.3.51-2.21,14-2,14.28s4-2.54,4.09-2.35.57,4.78.59,4.81l.21-.13"/><path class="cls-3" d="M306.8,719.62s.29-.21.31-.18-12,21.68-11.42,22.69S312.86,731.21,313.3,732c0,.06-19.23,9.85-18.28,11.51s18.29-11.38,18.65-10.76-22,17.53-22,17.54c1.32,2.3,23.11-15.06,23.85-13.77,1.79,3.1-30.36,21.75-29,24.14,1.7,3,30.35-20.91,31.82-18.37s-49.3,41.79-46.11,47.32c2.43,4.2,53.84-31.59,54.06-31.21,4.56,7.89-71.76,57.43-69.19,61.88.52.91,75.05-49.25,77.61-44.81,5.75,9.95-93.32,76.18-93.2,76.39,1.91,3.31,99.73-62.54,101.88-58.82,3.48,6-113.81,73.92-111.4,78.1,3.53,6.12,111.8-75.85,116.7-67.37"/><path class="cls-4" d="M978.25,703.85s.37-.22.37-.21c.32.54-15.14,25-14.91,25.41.34.6,22.12-12.93,22.19-12.82,1.18,2.06-34.61,34.27-34.6,34.3.86,1.47,39.1-26.5,40.8-23.56,1.06,1.85-45.3,27.08-44.07,29.22,2.47,4.27,44.63-28.25,45.7-26.38,2.43,4.2-47.21,26.3-46.43,27.65,1.78,3.07,45.12-29.94,46.8-27,2.93,5.08-63.22,54.34-62.89,54.9,3.66,6.33,66.9-48,70.94-41,1.74,3-91,67.28-88.58,71.5,3.41,5.9,95.33-59.81,97.39-56.23,1.7,2.93-97.72,55.73-97.41,56.27,2.09,3.62,94.18-61.87,97.43-56.25.22.39-112.41,74.68-110.24,78.44,1.89,3.28,112.9-73.82,116.64-67.35,7.29,12.63-136.77,75.24-129,88.73,2.34,4.06,131.74-84,135.15-78,.28.48-155.25,88.14-148.12,100.49,2.74,4.74,148.3-100.18,154.6-89.26,3.08,5.34-166,84.08-158.83,96.59.69,1.2,160.49-93.72,161-92.92,9.71,16.82-167.8,103.94-167.56,104.36.63,1.1,169.43-101.13,170.86-98.64,2.63,4.54-184.06,95.64-176.59,108.57C867.7,926,1035.48,802.12,1038.32,807c9.82,17-182,100.79-179.92,104.4,9.43,16.33,172-118.19,180.15-104,8,13.84-198.88,101-188.65,118.74,6.13,10.63,185.93-123.45,192.9-111.38,3.78,6.55-205.35,96.32-194.78,114.63,9.71,16.81,191.47-120.36,195.72-113,11.4,19.75-203.26,124.88-202.92,125.47,3.12,5.4,206-120.1,206.52-119.24,6.64,11.5-231.54,130.93-222.41,146.76,9,15.59,224-144,230.35-133,7.78,13.47-242.57,113.45-230.81,133.8,6.07,10.52,219.42-153.53,231-133.39,13.58,23.52-251.82,152-246.81,160.68,9.34,16.17,242.49-168.15,254.68-147,13.24,22.93-281.9,154.22-270.36,174.2,4.37,7.57,265.94-181.85,278.2-160.62,4,6.88-292.11,173.89-289,179.3,15.14,26.23,280.75-193.56,294.38-170,.15.26-323.5,170.12-309,195.25,0,0,307.17-198.37,316.28-182.6,8.56,14.82-330.19,198-327.68,202.33,10,17.27,329.11-199.86,333.37-192.47C1107,926,746.83,1100.13,748.15,1102.41c14.39,24.93,334.67-218.31,345.53-199.5.92,1.61-380.84,195.44-362,228,6.58,11.39,352.68-244.21,370.26-213.76,7.12,12.33-393.07,191.23-375.16,222.26,11,19.06,377.14-218.82,377.61-218,17.45,30.22-393.75,190.87-377.84,218.42,21.53,37.3,361.63-246.49,378-218.21,6.33,11-390.48,223.68-385.8,231.79,19.44,33.67,372.25-255.25,389.72-225C1130.1,966,701.7,1139.93,717.35,1167c11.94,20.68,373.95-268.24,396.62-229,10.35,17.93-405.13,209.88-394.11,229,16.48,28.53,390.21-235.73,394.73-227.9,1.68,2.9-378.43,208.65-367.32,227.9,10.93,18.93,354.67-249.81,374.17-216,1.5,2.58-363.86,199.52-354.33,216,7.75,13.43,355-214.89,359.29-207.44.46.8-337.63,176-319.5,207.44,3.79,6.55,322.78-201.77,329.45-190.21,10,17.26-337.67,165.83-323.59,190.21,2.3,4,319.32-197.62,325.06-187.67,10.79,18.69-316.77,167.91-305.36,187.67,6.68,11.58,293.62-208,310.28-179.14,8.93,15.47-290.34,175.43-288.2,179.14,15.82,27.39,282.31-189.34,293.72-169.58,10.75,18.61-276.89,166-274.79,169.58,11.87,20.55,271-176.24,279.52-161.38,9.84,17-258.18,156.3-255.25,161.38,11.49,19.91,249.77-170.88,261.32-150.87,13.26,22.95-249.38,135.12-240.29,150.87,1,1.67,237.53-155.67,245.55-141.77C1177.2,1047.58,912.18,1147,923.72,1167c11.29,19.55,231.29-157.9,241.84-139.62C1176.3,1046,931.38,1156.54,937.44,1167c4.83,8.36,219.58-154.41,231.55-133.68,12.86,22.28-243,110.81-229.83,133.68,12.19,21.12,228.09-136.69,230.26-132.94,2.84,4.92-210.26,116.38-200.7,132.94,10.52,18.23,205.48-124.66,208.09-120.14,6.32,10.94-189.35,104-180,120.14,3.54,6.13,185.22-111.16,187-108,2.77,4.8-183.42,101.1-179.44,108,2.44,4.23,173.08-119,181.34-104.7,8.84,15.32-153.83,104-153.42,104.7,1.22,2.1,158.69-95.58,160.4-92.61,8.11,14-156.67,84.41-151.93,92.61.68,1.18,151.87-92.72,154-88.94,6.55,11.34-145,79.66-139.59,88.94s142.12-84.57,143.2-82.68c6.33,11-115.71,72-109.51,82.68,3.66,6.34,116-71.35,117.94-68.09.59,1-120.62,56.65-114,68.09,5.44,9.43,111.6-72.25,115-66.39,5.66,9.81-109.42,56.53-103.73,66.39,2.9,5,103.45-66.87,106.55-61.51,3.28,5.69-99.44,53.8-95,61.51s94.89-61.67,97.88-56.51c4.12,7.15-91.85,52.9-89.77,56.51.74,1.27,90.38-55.44,91.79-53,3.75,6.49-81.47,49.32-79.35,53,.55,1,81.63-49,82.46-47.61,2.85,4.93-71.27,43.48-68.89,47.61,2.23,3.86,69-47.42,72.28-41.73,3.9,6.75-72.41,36.56-69.43,41.73.43.73,69.65-41.36,70.15-40.5,2.17,3.76-53,39.65-52.5,40.5,2.64,4.57,55.43-35.42,56.91-32.86,1.93,3.35-37.21,32.3-36.88,32.86.18.31,40.76-26.14,41.89-24.19,1.49,2.6-21.19,22-19.9,24.19,1.43,2.47,24.88-15.55,25.4-14.66.69,1.21-19.34,13.26-18.53,14.66.69,1.2,19.51-13,20.24-11.69.38.67,2.62,11.4,2.79,11.69s2.81-2,3-1.72.46,1.67.49,1.72.36-.25.37-.22"/></svg>